<?xml version="1.0" encoding="UTF-8" standalone="no"?>
<svg
   xmlns:dc="http://purl.org/dc/elements/1.1/"
   xmlns:cc="http://creativecommons.org/ns#"
   xmlns:rdf="http://www.w3.org/1999/02/22-rdf-syntax-ns#"
   xmlns:svg="http://www.w3.org/2000/svg"
   xmlns="http://www.w3.org/2000/svg"
   xmlns:sodipodi="http://sodipodi.sourceforge.net/DTD/sodipodi-0.dtd"
   xmlns:inkscape="http://www.inkscape.org/namespaces/inkscape"
   version="1.1"
   x="0px"
   y="0px"
   viewBox="0 0 88 71"
   xml:space="preserve"
   id="svg498"
   sodipodi:docname="design.svg"
   width="88"
   height="71"
   inkscape:version="0.92.2 (30a58d1, 2017-08-07)"><metadata
     id="metadata504"><rdf:RDF><cc:Work
         rdf:about=""><dc:format>image/svg+xml</dc:format><dc:type
           rdf:resource="http://purl.org/dc/dcmitype/StillImage" /><dc:title></dc:title></cc:Work></rdf:RDF></metadata><defs
     id="defs502" /><sodipodi:namedview
     pagecolor="#ffffff"
     bordercolor="#666666"
     borderopacity="1"
     objecttolerance="10"
     gridtolerance="10"
     guidetolerance="10"
     inkscape:pageopacity="0"
     inkscape:pageshadow="2"
     inkscape:window-width="1855"
     inkscape:window-height="1056"
     id="namedview500"
     showgrid="false"
     inkscape:zoom="5.3400704"
     inkscape:cx="37.216381"
     inkscape:cy="25.434037"
     inkscape:window-x="65"
     inkscape:window-y="24"
     inkscape:window-maximized="1"
     inkscape:current-layer="g492" /><style
     type="text/css"
     id="style2">
	.st0{display:none;}
	.st1{display:inline;}
	.st2{display:inline;stroke:#000000;stroke-miterlimit:10;}
	.st3{display:inline;fill:none;stroke:#000000;stroke-miterlimit:10;}
	.st4{display:inline;fill:none;stroke:#000000;stroke-width:3;stroke-miterlimit:10;}
	.st5{display:inline;fill:none;stroke:#000000;stroke-width:1.5;stroke-miterlimit:10;}
	.st6{display:inline;stroke:#000000;stroke-width:1.5;stroke-miterlimit:10;}
	.st7{display:inline;fill:none;stroke:#000000;stroke-width:0.5;stroke-miterlimit:10;}
	.st8{display:inline;fill:none;stroke:#000000;stroke-width:0.25;stroke-miterlimit:10;}
	.st9{stroke:#000000;stroke-miterlimit:10;}
	.st10{stroke:#000000;stroke-width:0.5;stroke-miterlimit:10;}
</style><g
     class="st0"
     id="g26"
     style="display:none"
     transform="translate(0,-54)"><circle
       class="st1"
       cx="24"
       cy="44.599998"
       r="9.3999996"
       id="circle4"
       style="display:inline" /><path
       class="st2"
       d="M 34.9,77.4 H 11.4 V 66.9 c 0,-0.9 0.1,-1.9 0.3,-2.8 0.5,-2.3 1.6,-6.6 5.2,-6.6 2.8,0 5.6,1.6 6.7,3.6 0.7,1.3 2.5,1.6 3.6,0.6 l 4.9,-4.2 c 0.2,-0.2 0.4,-0.3 0.7,-0.4 l 19.7,-7.7 c 0.8,-0.3 2.8,-1.1 3.9,1.5 1.2,2.8 -0.9,3.6 -1.7,4.1 l -18.6,9.7 c -1.3,0.7 -1.2,3.3 -1.2,4.8 0,3.1 0,7.8 0,7.9 z"
       id="path6"
       inkscape:connector-curvature="0"
       style="display:inline;stroke:#000000;stroke-miterlimit:10" /><g
       class="st1"
       id="g12"
       style="display:inline"><g
         id="g10"><path
           d="m 35,27.2 c 0,-2.5 0,-5 0,-7.5 -0.5,0.5 -1.1,0.9 -1.6,1.4 19.3,0 38.6,0 57.9,0 -0.5,-0.5 -0.9,-1.1 -1.4,-1.6 0,14.7 0,29.3 0,44 0.5,-0.5 1.1,-0.9 1.6,-1.4 -11.7,0 -23.5,0 -35.2,0 -1.9,0 -2.1,3 -0.2,3 11.7,0 23.5,0 35.2,0 0.8,0 1.6,-0.5 1.6,-1.4 0,-14.7 0,-29.3 0,-44 0,-0.8 -0.5,-1.6 -1.4,-1.6 -19.3,0 -38.6,0 -57.9,0 -0.8,0 -1.6,0.5 -1.6,1.4 0,2.5 0,5 0,7.5 0,1.9 3,2.1 3,0.2 z"
           id="path8"
           inkscape:connector-curvature="0" /></g></g><g
       class="st1"
       id="g18"
       style="display:inline"><g
         id="g16"><path
           d="m 42.4,47.4 c 5.6,-3.8 11.2,-7.7 16.8,-11.5 -0.5,-0.1 -0.9,-0.2 -1.4,-0.4 1.5,3.3 3,6.6 4.4,9.9 0.2,0.5 1,0.7 1.4,0.4 5.5,-4.2 11,-8.4 16.4,-12.6 1,-0.8 0,-2.5 -1,-1.7 -5.5,4.2 -11,8.4 -16.4,12.6 0.5,0.1 0.9,0.2 1.4,0.4 -1.5,-3.3 -3,-6.6 -4.4,-9.9 -0.2,-0.5 -1,-0.6 -1.4,-0.4 -5.6,3.8 -11.2,7.6 -16.8,11.4 -1,0.8 0,2.5 1,1.8 z"
           id="path14"
           inkscape:connector-curvature="0" /></g></g><g
       class="st1"
       id="g24"
       style="display:inline"><g
         id="g22"><path
           d="m 76.9,32.9 c 1.3,-0.2 2.6,-0.5 4,-0.7 -0.4,-0.4 -0.8,-0.8 -1.2,-1.2 -0.4,1.3 -0.9,2.5 -1.3,3.8 0.6,-0.1 1.1,-0.3 1.7,-0.4 -0.9,-1 -1.8,-2 -2.6,-3.1 -0.8,-1 -2.2,0.4 -1.4,1.4 0.9,1 1.8,2 2.6,3.1 0.5,0.6 1.4,0.2 1.7,-0.4 0.4,-1.3 0.9,-2.5 1.3,-3.8 0.3,-0.8 -0.5,-1.4 -1.2,-1.2 -1.3,0.2 -2.6,0.5 -4,0.7 -1.4,0.1 -0.9,2.1 0.4,1.8 z"
           id="path20"
           inkscape:connector-curvature="0" /></g></g></g><g
     class="st0"
     id="g42"
     style="display:none"
     transform="translate(0,-54)"><circle
       class="st1"
       cx="24"
       cy="44.599998"
       r="9.3999996"
       id="circle28"
       style="display:inline" /><path
       class="st2"
       d="M 34.9,77.4 H 11.4 V 66.9 c 0,-0.9 0.1,-1.9 0.3,-2.8 0.5,-2.3 1.6,-6.6 5.2,-6.6 2.8,0 5.6,1.6 6.7,3.6 0.7,1.3 2.5,1.6 3.6,0.6 l 4.9,-4.2 c 0.2,-0.2 0.4,-0.3 0.7,-0.4 l 19.7,-7.7 c 0.8,-0.3 2.8,-1.1 3.9,1.5 1.2,2.8 -0.9,3.6 -1.7,4.1 l -18.6,9.7 c -1.3,0.7 -1.2,3.3 -1.2,4.8 0,3.1 0,7.8 0,7.9 z"
       id="path30"
       inkscape:connector-curvature="0"
       style="display:inline;stroke:#000000;stroke-miterlimit:10" /><g
       class="st1"
       id="g36"
       style="display:inline"><g
         id="g34"><path
           d="m 35,27.2 c 0,-2.5 0,-5 0,-7.5 -0.5,0.5 -1.1,0.9 -1.6,1.4 19.3,0 38.6,0 57.9,0 -0.5,-0.5 -0.9,-1.1 -1.4,-1.6 0,14.7 0,29.3 0,44 0.5,-0.5 1.1,-0.9 1.6,-1.4 -11.7,0 -23.5,0 -35.2,0 -1.9,0 -2.1,3 -0.2,3 11.7,0 23.5,0 35.2,0 0.8,0 1.6,-0.5 1.6,-1.4 0,-14.7 0,-29.3 0,-44 0,-0.8 -0.5,-1.6 -1.4,-1.6 -19.3,0 -38.6,0 -57.9,0 -0.8,0 -1.6,0.5 -1.6,1.4 0,2.5 0,5 0,7.5 0,1.9 3,2.1 3,0.2 z"
           id="path32"
           inkscape:connector-curvature="0" /></g></g><path
       class="st1"
       d="m 74.4,34.6 h -1.3 c 0,0 0,0 0,0 0,0 0,0 0,-0.1 0,0 0,0 0,0 0,-0.2 -0.1,-0.4 -0.2,-0.6 0,0 0,0 0,0 0,0 0,0 0,0 0,0 0,0 0,-0.1 0,-0.2 -0.1,-0.3 -0.2,-0.4 0,-0.1 -0.1,-0.1 -0.1,-0.2 0,0 0,0 0,0 0,0 0,0 0,0 -0.1,-0.2 -0.2,-0.4 -0.3,-0.6 0,0 0,-0.1 0,-0.1 0,0 0,0 0,0 0,0 0,0 0,0 0,0 0,0 0,0 -0.1,-0.2 -0.2,-0.4 -0.3,-0.5 0,0 0,0 0,0 0,0 0,0 0,-0.1 0,0 0,0 0,0 L 72.9,31 c 0.3,-0.3 0.3,-0.7 0,-0.9 l -2,-2 c -0.3,-0.3 -0.7,-0.3 -0.9,0 L 69.1,29 c 0,0 0,0 0,0 0,0 0,0 -0.1,0 0,0 0,0 0,0 -0.2,-0.1 -0.4,-0.2 -0.6,-0.3 0,0 0,0 0,0 0,0 0,0 0,0 0,0 0,0 -0.1,0 -0.1,-0.1 -0.3,-0.1 -0.4,-0.2 -0.1,0 -0.1,-0.1 -0.2,-0.1 0,0 0,0 0,0 0,0 0,0 0,0 -0.2,-0.1 -0.4,-0.1 -0.6,-0.2 0,0 -0.1,0 -0.1,0 0,0 0,0 0,0 0,0 0,0 0,0 0,0 0,0 0,0 -0.2,-0.1 -0.4,-0.1 -0.6,-0.2 0,0 0,0 0,0 0,0 0,0 -0.1,0 0,0 0,0 0,0 V 26.7 C 66.3,26.3 66,26 65.6,26 H 62.7 C 62.3,26 62,26.3 62,26.7 V 28 c 0,0 0,0 0,0 0,0 0,0 -0.1,0 0,0 0,0 0,0 -0.2,0 -0.4,0.1 -0.6,0.2 0,0 0,0 0,0 0,0 0,0 0,0 0,0 0,0 -0.1,0 -0.1,0 -0.3,0.1 -0.4,0.2 -0.1,0 -0.2,0.1 -0.2,0.1 0,0 0,0 0,0 0,0 0,0 0,0 -0.2,0.1 -0.4,0.2 -0.6,0.3 0,0 -0.1,0 -0.1,0 0,0 0,0 0,0 0,0 0,0 0,0 0,0 0,0 0,0 -0.2,0.1 -0.4,0.2 -0.5,0.3 0,0 0,0 0,0 0,0 0,0 -0.1,0 0,0 0,0 0,0 L 58,27.7 c -0.3,-0.3 -0.7,-0.3 -0.9,0 l -2,2 c -0.3,0.3 -0.3,0.7 0,0.9 l 0.9,0.9 c 0,0 0,0 0,0 0,0 0,0 0,0.1 0,0 0,0 0,0 -0.1,0.2 -0.2,0.4 -0.3,0.6 0,0 0,0 0,0 0,0 0,0 0,0 0,0 0,0 0,0.1 -0.1,0.1 -0.1,0.3 -0.2,0.4 0,0.1 -0.1,0.1 -0.1,0.2 0,0 0,0 0,0 0,0 0,0 0,0 -0.1,0.2 -0.1,0.4 -0.2,0.6 0,0 0,0.1 0,0.1 0,0 0,0 0,0 0,0 0,0 0,0 0,0 0,0 0,0 -0.1,0.2 -0.1,0.4 -0.2,0.6 0,0 0,0 0,0 0,0 0,0 0,0.1 0,0 0,0 0,0 H 53.7 C 53.3,34.3 53,34.6 53,35 v 2.9 c 0,0.4 0.3,0.7 0.7,0.7 H 55 c 0,0 0,0 0,0 0,0 0,0 0,0.1 0,0 0,0 0,0 0,0.2 0.1,0.4 0.2,0.6 0,0 0,0 0,0 0,0 0,0 0,0 0,0 0,0 0,0.1 0.1,0.2 0.1,0.3 0.2,0.5 0,0.1 0,0.1 0.1,0.2 0,0 0,0 0,0 0,0 0,0 0,0 0.1,0.2 0.2,0.4 0.3,0.6 0,0 0,0.1 0,0.1 0,0 0,0 0,0 0,0 0,0 0,0 0,0 0,0 0,0 0.1,0.2 0.2,0.4 0.3,0.5 0,0 0,0 0,0 0,0 0,0 0,0.1 0,0 0,0 0,0 L 55,42.6 c -0.3,0.3 -0.3,0.7 0,0.9 l 2,2 c 0.3,0.3 0.7,0.3 0.9,0 l 0.9,-0.9 c 0,0 0,0 0,0 0,0 0,0 0.1,0 0,0 0,0 0,0 0.2,0.1 0.4,0.2 0.6,0.3 0,0 0,0 0,0 0,0 0,0 0,0 0,0 0,0 0.1,0 0.1,0.1 0.3,0.1 0.4,0.2 0.1,0 0.1,0.1 0.2,0.1 0,0 0,0 0,0 0,0 0,0 0,0 0.2,0.1 0.4,0.1 0.6,0.2 0,0 0.1,0 0.1,0 0,0 0,0 0,0 0,0 0,0 0,0 0,0 0,0 0,0 0.2,0.1 0.4,0.1 0.6,0.2 0,0 0,0 0,0 0,0 0,0 0.1,0 0,0 0,0 0,0 v 1.3 c 0,0.4 0.3,0.7 0.7,0.7 h 2.9 c 0.4,0 0.7,-0.3 0.7,-0.7 v -1.3 c 0,0 0,0 0,0 0,0 0,0 0.1,0 0,0 0,0 0,0 0.2,0 0.4,-0.1 0.6,-0.2 0,0 0,0 0,0 0,0 0,0 0,0 0,0 0,0 0.1,0 0.1,0 0.3,-0.1 0.4,-0.2 0.1,0 0.2,-0.1 0.2,-0.1 0,0 0,0 0,0 0,0 0,0 0,0 0.2,-0.1 0.4,-0.2 0.5,-0.2 0,0 0.1,0 0.1,-0.1 0,0 0,0 0,0 0,0 0,0 0,0 0,0 0,0 0,0 0.2,-0.1 0.4,-0.2 0.5,-0.3 0,0 0,0 0,0 0,0 0,0 0.1,0 0,0 0,0 0,0 l 0.9,0.9 c 0.3,0.3 0.7,0.3 0.9,0 l 2,-2 c 0.3,-0.3 0.3,-0.7 0,-0.9 l -0.9,-0.9 c 0,0 0,0 0,0 0,0 0,0 0,-0.1 0,0 0,0 0,0 0.1,-0.2 0.2,-0.4 0.3,-0.6 0,0 0,0 0,0 0,0 0,0 0,0 0,0 0,0 0,-0.1 0.1,-0.1 0.1,-0.3 0.2,-0.4 0,-0.1 0.1,-0.1 0.1,-0.2 0,0 0,0 0,0 0,0 0,0 0,0 0.1,-0.2 0.1,-0.4 0.2,-0.6 0,0 0,-0.1 0,-0.1 0,0 0,0 0,0 0,0 0,0 0,0 0,0 0,0 0,0 0.1,-0.2 0.1,-0.4 0.2,-0.6 0,0 0,0 0,0 0,0 0,0 0,-0.1 0,0 0,0 0,0 h 1.3 c 0.4,0 0.7,-0.3 0.7,-0.7 v -2.9 c 0.7,-0.3 0.4,-0.6 0,-0.6 z M 66.5,37 c 0,0.1 0,0.1 0,0.2 0,0.1 0,0.1 0,0.2 0,0.1 0,0.1 -0.1,0.2 0,0.1 0,0.1 -0.1,0.2 -0.1,0.1 -0.1,0.2 -0.2,0.4 0,0 0,0 0,0.1 -0.1,0.1 -0.2,0.3 -0.3,0.4 0,0 -0.1,0 -0.1,0.1 -0.1,0.1 -0.3,0.3 -0.5,0.4 0,0 0,0 0,0 -0.1,0.1 -0.3,0.1 -0.5,0.2 -0.1,0 -0.1,0 -0.2,0.1 -0.1,0 -0.3,0.1 -0.4,0.1 -0.1,0 -0.1,0 -0.2,0 -0.2,0 -0.4,0 -0.5,0 0,0 -0.1,0 -0.1,0 -0.1,0 -0.2,0 -0.2,-0.1 0,0 -0.1,0 -0.1,0 -0.1,0 -0.2,-0.1 -0.2,-0.1 0,0 -0.1,0 -0.1,0 -0.1,-0.1 -0.2,-0.1 -0.3,-0.2 0,0 0,0 -0.1,-0.1 -0.1,-0.1 -0.1,-0.1 -0.2,-0.2 0,0 0,0 -0.1,-0.1 -0.1,-0.1 -0.2,-0.2 -0.3,-0.4 0,0 0,0 0,-0.1 -0.1,-0.1 -0.1,-0.2 -0.2,-0.4 0,0 0,-0.1 -0.1,-0.1 0,-0.1 -0.1,-0.2 -0.1,-0.3 0,0 0,-0.1 0,-0.1 0,-0.2 0,-0.3 0,-0.5 0,-0.2 0,-0.3 0.1,-0.5 0,-0.1 0,-0.1 0.1,-0.2 0,-0.1 0,-0.2 0.1,-0.3 0,-0.1 0.1,-0.2 0.1,-0.2 0,-0.1 0.1,-0.1 0.1,-0.2 0.1,-0.1 0.2,-0.3 0.3,-0.4 0,0 0,0 0,0 0.1,-0.1 0.3,-0.2 0.4,-0.3 0.1,0 0.1,-0.1 0.2,-0.1 0.1,0 0.2,-0.1 0.2,-0.1 0.1,0 0.2,-0.1 0.3,-0.1 0.1,0 0.1,-0.1 0.2,-0.1 0.2,0 0.3,-0.1 0.5,-0.1 0.2,0 0.3,0 0.5,0.1 0.1,0 0.2,0 0.2,0.1 0.1,0 0.2,0 0.3,0.1 0.1,0 0.2,0.1 0.2,0.1 0.1,0 0.1,0.1 0.2,0.1 0.1,0.1 0.3,0.2 0.4,0.3 0.1,0.1 0.2,0.2 0.3,0.4 0,0 0,0.1 0.1,0.1 0.1,0.1 0.1,0.2 0.2,0.3 0,0 0,0.1 0.1,0.1 0,0.1 0.1,0.2 0.1,0.4 0,0 0,0 0,0.1 0,0.2 0,0.3 0,0.5 0,0.1 0,0.1 0,0.2 0,-0.4 0,-0.3 0,-0.2 z"
       id="path38"
       inkscape:connector-curvature="0"
       style="display:inline" /><path
       class="st1"
       d="M 83.6,42.9 82.9,43 c 0,0 0,0 0,0 0,0 0,0 0,0 0,0 0,0 0,0 0,-0.1 -0.1,-0.2 -0.1,-0.3 0,0 0,0 0,0 0,0 0,0 0,0 0,0 0,0 0,0 0,-0.1 -0.1,-0.1 -0.1,-0.2 0,0 0,-0.1 -0.1,-0.1 0,0 0,0 0,0 0,0 0,0 0,0 0,-0.1 -0.1,-0.2 -0.2,-0.2 0,0 0,0 0,0 0,0 0,0 0,0 0,0 0,0 0,0 0,0 0,0 0,0 -0.1,-0.1 -0.1,-0.2 -0.2,-0.2 0,0 0,0 0,0 0,0 0,0 0,0 0,0 0,0 0,0 l 0.4,-0.5 c 0.1,-0.1 0.1,-0.3 -0.1,-0.4 L 81.4,40.3 C 81.3,40.2 81.1,40.2 81,40.4 l -0.4,0.5 c 0,0 0,0 0,0 0,0 0,0 0,0 0,0 0,0 0,0 -0.1,0 -0.2,-0.1 -0.3,-0.1 0,0 0,0 0,0 0,0 0,0 0,0 0,0 0,0 0,0 -0.1,0 -0.1,0 -0.2,-0.1 0,0 -0.1,0 -0.1,0 0,0 0,0 0,0 0,0 0,0 0,0 -0.1,0 -0.2,0 -0.3,-0.1 0,0 0,0 0,0 0,0 0,0 0,0 0,0 0,0 0,0 0,0 0,0 0,0 -0.1,0 -0.2,0 -0.3,0 0,0 0,0 0,0 0,0 0,0 0,0 0,0 0,0 0,0 L 79.3,40 c 0,-0.2 -0.2,-0.3 -0.4,-0.3 l -1.4,0.2 c -0.2,0 -0.3,0.2 -0.3,0.4 l 0.1,0.6 c 0,0 0,0 0,0 0,0 0,0 0,0 0,0 0,0 0,0 -0.1,0 -0.2,0.1 -0.3,0.1 0,0 0,0 0,0 0,0 0,0 0,0 0,0 0,0 0,0 -0.1,0 -0.1,0.1 -0.2,0.1 0,0 -0.1,0 -0.1,0.1 0,0 0,0 0,0 0,0 0,0 0,0 -0.1,0 -0.2,0.1 -0.2,0.2 0,0 0,0 0,0 0,0 0,0 0,0 0,0 0,0 0,0 0,0 0,0 0,0 C 76.1,40.9 76,41 75.9,41 c 0,0 0,0 0,0 0,0 0,0 0,0 0,0 0,0 0,0 L 75.4,40.6 C 75.3,40.5 75.1,40.5 75,40.7 l -0.8,1.1 c -0.1,0.1 -0.1,0.3 0.1,0.4 l 0.5,0.4 c 0,0 0,0 0,0 0,0 0,0 0,0 0,0 0,0 0,0 0,0.1 -0.1,0.2 -0.1,0.3 0,0 0,0 0,0 0,0 0,0 0,0 0,0 0,0 0,0 0,0.1 0,0.1 -0.1,0.2 0,0 0,0.1 0,0.1 0,0 0,0 0,0 0,0 0,0 0,0 0,0.1 0,0.2 -0.1,0.3 0,0 0,0 0,0 0,0 0,0 0,0 0,0 0,0 0,0 0,0 0,0 0,0 0,0.1 0,0.2 0,0.3 0,0 0,0 0,0 0,0 0,0 0,0 0,0 0,0 0,0 l -0.6,0.1 c -0.2,0 -0.3,0.2 -0.3,0.4 l 0.2,1.4 c 0,0.2 0.2,0.3 0.4,0.3 l 0.6,-0.1 c 0,0 0,0 0,0 0,0 0,0 0,0 0,0 0,0 0,0 0,0.1 0.1,0.2 0.1,0.3 0,0 0,0 0,0 0,0 0,0 0,0 0,0 0,0 0,0 0,0.1 0.1,0.1 0.1,0.2 0,0 0,0.1 0,0.1 0,0 0,0 0,0 0,0 0,0 0,0 0,0.1 0.1,0.2 0.2,0.3 0,0 0,0 0,0 0,0 0,0 0,0 0,0 0,0 0,0 0,0 0,0 0,0 0.1,0.1 0.1,0.2 0.2,0.2 0,0 0,0 0,0 0,0 0,0 0,0 0,0 0,0 0,0 L 75,47.5 c -0.1,0.1 -0.1,0.3 0.1,0.4 l 1.1,0.8 c 0.1,0.1 0.3,0.1 0.4,-0.1 L 77,48.1 c 0,0 0,0 0,0 0,0 0,0 0,0 0,0 0,0 0,0 0.1,0 0.2,0.1 0.3,0.1 0,0 0,0 0,0 0,0 0,0 0,0 0,0 0,0 0,0 0.1,0 0.1,0 0.2,0.1 0,0 0.1,0 0.1,0 0,0 0,0 0,0 0,0 0,0 0,0 0.1,0 0.2,0 0.3,0.1 0,0 0,0 0.1,0 0,0 0,0 0,0 0,0 0,0 0,0 0,0 0,0 0,0 0.1,0 0.2,0 0.3,0 0,0 0,0 0,0 0,0 0,0 0,0 0,0 0,0 0,0 l 0.1,0.6 c 0,0.2 0.2,0.3 0.4,0.3 l 1.4,-0.2 c 0.2,0 0.3,-0.2 0.3,-0.4 l -0.1,-0.6 c 0,0 0,0 0,0 0,0 0,0 0,0 0,0 0,0 0,0 0.1,0 0.2,-0.1 0.3,-0.1 0,0 0,0 0,0 0,0 0,0 0,0 0,0 0,0 0,0 0.1,0 0.1,-0.1 0.2,-0.1 0,0 0.1,0 0.1,-0.1 0,0 0,0 0,0 0,0 0,0 0,0 0.1,0 0.2,-0.1 0.2,-0.2 0,0 0,0 0,0 0,0 0,0 0,0 0,0 0,0 0,0 0,0 0,0 0,0 0.1,-0.1 0.2,-0.1 0.2,-0.2 0,0 0,0 0,0 0,0 0,0 0,0 0,0 0,0 0,0 l 0.5,0.4 c 0.1,0.1 0.3,0.1 0.4,-0.1 l 0.8,-1.1 c 0.1,-0.1 0.1,-0.3 -0.1,-0.4 l -0.5,-0.4 c 0,0 0,0 0,0 0,0 0,0 0,0 0,0 0,0 0,0 0,-0.1 0.1,-0.2 0.1,-0.3 0,0 0,0 0,0 0,0 0,0 0,0 0,0 0,0 0,0 0,-0.1 0,-0.1 0.1,-0.2 0,0 0,-0.1 0,-0.1 0,0 0,0 0,0 0,0 0,0 0,0 0,-0.1 0,-0.2 0.1,-0.3 0,0 0,0 0,0 0,0 0,0 0,0 0,0 0,0 0,0 0,0 0,0 0,0 0,-0.1 0,-0.2 0,-0.3 0,0 0,0 0,0 0,0 0,0 0,0 0,0 0,0 0,0 l 0.6,-0.1 c 0.2,0 0.3,-0.2 0.3,-0.4 l -0.2,-1.4 c 0.4,0.3 0.2,0.2 0.1,0.2 z M 80,44.5 c 0,0 0,0.1 0,0 0,0.1 0,0.2 0,0.2 0,0 0,0.1 0,0.1 0,0 0,0.1 0,0.1 0,0.1 0,0.1 -0.1,0.2 0,0 0,0 0,0 0,0.1 -0.1,0.1 -0.1,0.2 0,0 0,0 0,0 -0.1,0.1 -0.1,0.1 -0.2,0.2 0,0 0,0 0,0 -0.1,0 -0.1,0.1 -0.2,0.1 0,0 -0.1,0 -0.1,0 -0.1,0 -0.1,0 -0.2,0.1 0,0 -0.1,0 -0.1,0 -0.1,0 -0.2,0 -0.3,0 0,0 0,0 -0.1,0 0,0 -0.1,0 -0.1,0 0,0 0,0 -0.1,0 0,0 -0.1,0 -0.1,0 0,0 0,0 0,0 -0.1,0 -0.1,0 -0.2,-0.1 0,0 0,0 0,0 0,0 -0.1,0 -0.1,-0.1 0,0 0,0 0,0 -0.1,0 -0.1,-0.1 -0.2,-0.2 0,0 0,0 0,0 0,0 -0.1,-0.1 -0.1,-0.2 0,0 0,0 0,-0.1 0,0 0,-0.1 -0.1,-0.1 0,0 0,0 0,-0.1 0,-0.1 0,-0.1 0,-0.2 0,-0.1 0,-0.2 0,-0.2 0,0 0,-0.1 0,-0.1 0,0 0,-0.1 0,-0.1 0,0 0,-0.1 0,-0.1 0,0 0,-0.1 0,-0.1 0,-0.1 0.1,-0.1 0.1,-0.2 0,0 0,0 0,0 0.1,-0.1 0.1,-0.1 0.2,-0.2 0,0 0.1,0 0.1,-0.1 0,0 0.1,-0.1 0.1,-0.1 0,0 0.1,0 0.1,-0.1 0,0 0.1,0 0.1,0 0.1,0 0.2,0 0.2,-0.1 0.1,0 0.2,0 0.2,0 0,0 0.1,0 0.1,0 0,0 0.1,0 0.1,0 0,0 0.1,0 0.1,0 0,0 0.1,0 0.1,0 0.1,0 0.1,0.1 0.2,0.1 0.1,0 0.1,0.1 0.2,0.2 0,0 0,0 0,0 0,0 0.1,0.1 0.1,0.1 0,0 0,0 0,0.1 0,0.1 0.1,0.1 0.1,0.2 0,0 0,0 0,0 0,0.1 0,0.1 0.1,0.2 0,0 0,0.1 0,0.1 0.2,0.2 0.2,0.3 0.2,0.3 z"
       id="path40"
       inkscape:connector-curvature="0"
       style="display:inline" /></g><g
     class="st0"
     id="g78"
     style="display:none"
     transform="translate(0,-54)"><circle
       class="st1"
       cx="24"
       cy="44.599998"
       r="9.3999996"
       id="circle44"
       style="display:inline" /><path
       class="st2"
       d="M 34.9,77.4 H 11.4 V 66.9 c 0,-0.9 0.1,-1.9 0.3,-2.8 0.5,-2.3 1.6,-6.6 5.2,-6.6 2.8,0 5.6,1.6 6.7,3.6 0.7,1.3 2.5,1.6 3.6,0.6 l 4.9,-4.2 c 0.2,-0.2 0.4,-0.3 0.7,-0.4 l 19.7,-7.7 c 0.8,-0.3 2.8,-1.1 3.9,1.5 1.2,2.8 -0.9,3.6 -1.7,4.1 l -18.6,9.7 c -1.3,0.7 -1.2,3.3 -1.2,4.8 0,3.1 0,7.8 0,7.9 z"
       id="path46"
       inkscape:connector-curvature="0"
       style="display:inline;stroke:#000000;stroke-miterlimit:10" /><g
       class="st1"
       id="g52"
       style="display:inline"><g
         id="g50"><path
           d="m 35,27.2 c 0,-2.5 0,-5 0,-7.5 -0.5,0.5 -1.1,0.9 -1.6,1.4 19.3,0 38.6,0 57.9,0 -0.5,-0.5 -0.9,-1.1 -1.4,-1.6 0,14.7 0,29.3 0,44 0.5,-0.5 1.1,-0.9 1.6,-1.4 -11.7,0 -23.5,0 -35.2,0 -1.9,0 -2.1,3 -0.2,3 11.7,0 23.5,0 35.2,0 0.8,0 1.6,-0.5 1.6,-1.4 0,-14.7 0,-29.3 0,-44 0,-0.8 -0.5,-1.6 -1.4,-1.6 -19.3,0 -38.6,0 -57.9,0 -0.8,0 -1.6,0.5 -1.6,1.4 0,2.5 0,5 0,7.5 0,1.9 3,2.1 3,0.2 z"
           id="path48"
           inkscape:connector-curvature="0" /></g></g><g
       class="st1"
       id="g58"
       style="display:inline"><g
         id="g56"><path
           d="m 46.7,30.4 c 11.3,0 22.7,0 34,0 1.3,0 1.3,-2 0,-2 -11.3,0 -22.7,0 -34,0 -1.3,0 -1.3,2 0,2 z"
           id="path54"
           inkscape:connector-curvature="0" /></g></g><g
       class="st1"
       id="g64"
       style="display:inline"><g
         id="g62"><path
           d="m 46.7,35.8 c 11.3,0 22.7,0 34,0 1.3,0 1.3,-2 0,-2 -11.3,0 -22.7,0 -34,0 -1.3,0 -1.3,2 0,2 z"
           id="path60"
           inkscape:connector-curvature="0" /></g></g><g
       class="st1"
       id="g70"
       style="display:inline"><g
         id="g68"><path
           d="m 46.7,41.1 c 11.3,0 22.7,0 34,0 1.3,0 1.3,-2 0,-2 -11.3,0 -22.7,0 -34,0 -1.3,0 -1.3,2 0,2 z"
           id="path66"
           inkscape:connector-curvature="0" /></g></g><g
       class="st1"
       id="g76"
       style="display:inline"><g
         id="g74"><path
           d="m 60.7,46.5 c 6.7,0 13.3,0 20,0 1.3,0 1.3,-2 0,-2 -6.7,0 -13.3,0 -20,0 -1.3,0 -1.3,2 0,2 z"
           id="path72"
           inkscape:connector-curvature="0" /></g></g></g><g
     class="st0"
     id="g92"
     style="display:none"
     transform="translate(0,-54)"><circle
       class="st1"
       cx="24"
       cy="44.599998"
       r="9.3999996"
       id="circle80"
       style="display:inline" /><path
       class="st2"
       d="M 34.9,77.4 H 11.4 V 66.9 c 0,-0.9 0.1,-1.9 0.3,-2.8 0.5,-2.3 1.6,-6.6 5.2,-6.6 2.8,0 5.6,1.6 6.7,3.6 0.7,1.3 2.5,1.6 3.6,0.6 l 4.9,-4.2 c 0.2,-0.2 0.4,-0.3 0.7,-0.4 l 19.7,-7.7 c 0.8,-0.3 2.8,-1.1 3.9,1.5 1.2,2.8 -0.9,3.6 -1.7,4.1 l -18.6,9.7 c -1.3,0.7 -1.2,3.3 -1.2,4.8 0,3.1 0,7.8 0,7.9 z"
       id="path82"
       inkscape:connector-curvature="0"
       style="display:inline;stroke:#000000;stroke-miterlimit:10" /><g
       class="st1"
       id="g88"
       style="display:inline"><g
         id="g86"><path
           d="m 35,27.2 c 0,-2.5 0,-5 0,-7.5 -0.5,0.5 -1.1,0.9 -1.6,1.4 19.3,0 38.6,0 57.9,0 -0.5,-0.5 -0.9,-1.1 -1.4,-1.6 0,14.7 0,29.3 0,44 0.5,-0.5 1.1,-0.9 1.6,-1.4 -11.7,0 -23.5,0 -35.2,0 -1.9,0 -2.1,3 -0.2,3 11.7,0 23.5,0 35.2,0 0.8,0 1.6,-0.5 1.6,-1.4 0,-14.7 0,-29.3 0,-44 0,-0.8 -0.5,-1.6 -1.4,-1.6 -19.3,0 -38.6,0 -57.9,0 -0.8,0 -1.6,0.5 -1.6,1.4 0,2.5 0,5 0,7.5 0,1.9 3,2.1 3,0.2 z"
           id="path84"
           inkscape:connector-curvature="0" /></g></g><path
       class="st1"
       d="m 81.4,34.9 v 0 c -0.3,0 -0.5,-0.2 -0.6,-0.4 L 78.3,29 c -0.1,-0.3 -0.4,-0.4 -0.6,-0.4 h -15 c -0.3,0 -0.5,0.2 -0.6,0.4 l -2.6,5.5 c -0.1,0.2 -0.4,0.4 -0.6,0.4 v 0 c -0.4,0 -0.7,0.3 -0.7,0.7 v 5.9 c 0,0.4 0.3,0.7 0.7,0.7 H 59 v 2.4 c 0,0.8 0.7,1.5 1.5,1.5 h 0.7 c 0.8,0 1.5,-0.7 1.5,-1.5 v -2.4 h 14.7 v 2.4 c 0,0.8 0.7,1.5 1.5,1.5 h 0.7 c 0.8,0 1.5,-0.7 1.5,-1.5 v -2.4 h 0.3 c 0.4,0 0.7,-0.3 0.7,-0.7 v -5.9 c 0,-0.4 -0.3,-0.7 -0.7,-0.7 z m -19.8,-2.3 0.9,-2.1 c 0.2,-0.4 0.6,-0.7 1.1,-0.7 h 13.1 c 0.5,0 0.9,0.3 1.1,0.7 l 0.8,2 c 0.3,0.8 -0.2,1.7 -1.1,1.7 H 62.7 c -0.8,0.1 -1.4,-0.8 -1.1,-1.6 z m -1.8,8 c 0,-0.2 0.2,-0.4 0.4,-0.4 h 1.6 c 0.2,0 0.4,0.2 0.4,0.4 0,0.2 -0.2,0.4 -0.4,0.4 H 60.2 C 60,41.1 59.8,40.9 59.8,40.6 Z M 61,39.5 c -1,0 -1.9,-0.8 -1.9,-1.9 0,-1 0.8,-1.9 1.9,-1.9 1,0 1.9,0.8 1.9,1.9 0,1.1 -0.9,1.9 -1.9,1.9 z m 18.1,-3.7 c 1,0 1.9,0.8 1.9,1.9 0,1 -0.8,1.9 -1.9,1.9 -1,0 -1.9,-0.8 -1.9,-1.9 0,-1 0.9,-1.9 1.9,-1.9 z m -1.3,5 c 0,-0.2 0.2,-0.4 0.4,-0.4 h 1.6 c 0.2,0 0.4,0.2 0.4,0.4 0,0.2 -0.2,0.4 -0.4,0.4 H 78.2 C 78,41.2 77.8,41 77.8,40.8 Z"
       id="path90"
       inkscape:connector-curvature="0"
       style="display:inline" /></g><g
     class="st0"
     id="g106"
     style="display:none"
     transform="translate(0,-54)"><circle
       class="st1"
       cx="24"
       cy="44.599998"
       r="9.3999996"
       id="circle94"
       style="display:inline" /><path
       class="st2"
       d="M 34.9,77.4 H 11.4 V 66.9 c 0,-0.9 0.1,-1.9 0.3,-2.8 0.5,-2.3 1.6,-6.6 5.2,-6.6 2.8,0 5.6,1.6 6.7,3.6 0.7,1.3 2.5,1.6 3.6,0.6 l 4.9,-4.2 c 0.2,-0.2 0.4,-0.3 0.7,-0.4 l 19.7,-7.7 c 0.8,-0.3 2.8,-1.1 3.9,1.5 1.2,2.8 -0.9,3.6 -1.7,4.1 l -18.6,9.7 c -1.3,0.7 -1.2,3.3 -1.2,4.8 0,3.1 0,7.8 0,7.9 z"
       id="path96"
       inkscape:connector-curvature="0"
       style="display:inline;stroke:#000000;stroke-miterlimit:10" /><g
       class="st1"
       id="g102"
       style="display:inline"><g
         id="g100"><path
           d="m 35,27.2 c 0,-2.5 0,-5 0,-7.5 -0.5,0.5 -1.1,0.9 -1.6,1.4 19.3,0 38.6,0 57.9,0 -0.5,-0.5 -0.9,-1.1 -1.4,-1.6 0,14.7 0,29.3 0,44 0.5,-0.5 1.1,-0.9 1.6,-1.4 -11.7,0 -23.5,0 -35.2,0 -1.9,0 -2.1,3 -0.2,3 11.7,0 23.5,0 35.2,0 0.8,0 1.6,-0.5 1.6,-1.4 0,-14.7 0,-29.3 0,-44 0,-0.8 -0.5,-1.6 -1.4,-1.6 -19.3,0 -38.6,0 -57.9,0 -0.8,0 -1.6,0.5 -1.6,1.4 0,2.5 0,5 0,7.5 0,1.9 3,2.1 3,0.2 z"
           id="path98"
           inkscape:connector-curvature="0" /></g></g><path
       class="st1"
       d="M 80.3,46 70.1,35.7 c 0,0 0,0 0,0 0,-0.1 0,-0.1 0.1,-0.2 0.3,-1.1 0.3,-2.3 0,-3.5 -1.3,-4.2 -5,-5.9 -8.4,-5.3 -0.3,0.1 -0.4,0.5 -0.2,0.7 l 3.4,3.4 c 0.3,0.3 0.3,0.9 0,1.2 l -3.5,3.5 c -0.3,0.3 -0.9,0.3 -1.2,0 -0.9,-0.9 -2.7,-2.7 -3.5,-3.5 -0.2,-0.2 -0.6,-0.1 -0.7,0.2 -0.5,2.4 0.1,4.9 1.9,6.8 2,2 4.8,2.6 7.2,1.8 L 75.3,51 c 1.4,1.4 3.7,1.4 5.1,0 v 0 c 1.3,-1.4 1.3,-3.6 -0.1,-5 z"
       id="path104"
       inkscape:connector-curvature="0"
       style="display:inline" /></g><g
     class="st0"
     id="g120"
     style="display:none"
     transform="translate(0,-54)"><circle
       class="st1"
       cx="24"
       cy="44.599998"
       r="9.3999996"
       id="circle108"
       style="display:inline" /><path
       class="st2"
       d="M 34.9,77.4 H 11.4 V 66.9 c 0,-0.9 0.1,-1.9 0.3,-2.8 0.5,-2.3 1.6,-6.6 5.2,-6.6 2.8,0 5.6,1.6 6.7,3.6 0.7,1.3 2.5,1.6 3.6,0.6 l 4.9,-4.2 c 0.2,-0.2 0.4,-0.3 0.7,-0.4 l 19.7,-7.7 c 0.8,-0.3 2.8,-1.1 3.9,1.5 1.2,2.8 -0.9,3.6 -1.7,4.1 l -18.6,9.7 c -1.3,0.7 -1.2,3.3 -1.2,4.8 0,3.1 0,7.8 0,7.9 z"
       id="path110"
       inkscape:connector-curvature="0"
       style="display:inline;stroke:#000000;stroke-miterlimit:10" /><g
       class="st1"
       id="g116"
       style="display:inline"><g
         id="g114"><path
           d="m 35,27.2 c 0,-2.5 0,-5 0,-7.5 -0.5,0.5 -1.1,0.9 -1.6,1.4 19.3,0 38.6,0 57.9,0 -0.5,-0.5 -0.9,-1.1 -1.4,-1.6 0,14.7 0,29.3 0,44 0.5,-0.5 1.1,-0.9 1.6,-1.4 -11.7,0 -23.5,0 -35.2,0 -1.9,0 -2.1,3 -0.2,3 11.7,0 23.5,0 35.2,0 0.8,0 1.6,-0.5 1.6,-1.4 0,-14.7 0,-29.3 0,-44 0,-0.8 -0.5,-1.6 -1.4,-1.6 -19.3,0 -38.6,0 -57.9,0 -0.8,0 -1.6,0.5 -1.6,1.4 0,2.5 0,5 0,7.5 0,1.9 3,2.1 3,0.2 z"
           id="path112"
           inkscape:connector-curvature="0" /></g></g><path
       class="st1"
       d="M 82.3,35.1 H 62.9 v -0.3 h 19.2 c 0.3,0 0.4,-0.3 0.3,-0.5 L 82,33.5 c 0,-0.1 -0.1,-0.1 -0.2,-0.1 H 62.9 V 33.1 H 81.8 L 81.6,32.8 C 81.5,32.6 81.3,32.5 81.1,32.5 H 60.8 C 59.7,29.9 57,28 54,28 c -4.1,0 -7.3,3.3 -7.3,7.3 0,4.1 3.3,7.3 7.3,7.3 3.2,0 5.9,-2.1 6.9,-4.9 h 1.2 l 0.5,-0.5 h 2.1 L 67,36 h 1.3 l 1.5,1.2 h 1.3 l 0.9,0.5 h 1.1 L 74,37.2 h 1 L 76.5,36 h 0.8 l 2.2,1.6 h 1.7 l 1.1,-2.3 c 0.3,0 0.2,-0.2 0,-0.2 z m -31.4,3.1 c -1.6,0 -2.8,-1.3 -2.8,-2.8 0,-1.6 1.3,-2.8 2.8,-2.8 1.6,0 2.8,1.3 2.8,2.8 0,1.5 -1.3,2.8 -2.8,2.8 z"
       id="path118"
       inkscape:connector-curvature="0"
       style="display:inline" /></g><g
     class="st0"
     id="g188"
     style="display:none"
     transform="translate(0,-54)"><circle
       class="st1"
       cx="24"
       cy="44.599998"
       r="9.3999996"
       id="circle122"
       style="display:inline" /><path
       class="st2"
       d="M 34.9,77.4 H 11.4 V 66.9 c 0,-0.9 0.1,-1.9 0.3,-2.8 0.5,-2.3 1.6,-6.6 5.2,-6.6 2.8,0 5.6,1.6 6.7,3.6 0.7,1.3 2.5,1.6 3.6,0.6 l 4.9,-4.2 c 0.2,-0.2 0.4,-0.3 0.7,-0.4 l 19.7,-7.7 c 0.8,-0.3 2.8,-1.1 3.9,1.5 1.2,2.8 -0.9,3.6 -1.7,4.1 l -18.6,9.7 c -1.3,0.7 -1.2,3.3 -1.2,4.8 0,3.1 0,7.8 0,7.9 z"
       id="path124"
       inkscape:connector-curvature="0"
       style="display:inline;stroke:#000000;stroke-miterlimit:10" /><g
       class="st1"
       id="g130"
       style="display:inline"><g
         id="g128"><path
           d="m 35,27.2 c 0,-2.5 0,-5 0,-7.5 -0.5,0.5 -1.1,0.9 -1.6,1.4 19.3,0 38.6,0 57.9,0 -0.5,-0.5 -0.9,-1.1 -1.4,-1.6 0,14.7 0,29.3 0,44 0.5,-0.5 1.1,-0.9 1.6,-1.4 -11.7,0 -23.5,0 -35.2,0 -1.9,0 -2.1,3 -0.2,3 11.7,0 23.5,0 35.2,0 0.8,0 1.6,-0.5 1.6,-1.4 0,-14.7 0,-29.3 0,-44 0,-0.8 -0.5,-1.6 -1.4,-1.6 -19.3,0 -38.6,0 -57.9,0 -0.8,0 -1.6,0.5 -1.6,1.4 0,2.5 0,5 0,7.5 0,1.9 3,2.1 3,0.2 z"
           id="path126"
           inkscape:connector-curvature="0" /></g></g><g
       class="st1"
       id="g136"
       style="display:inline"><g
         id="g134"><path
           d="m 64.3,33.6 c -0.3,6 -9.4,6.1 -9.4,0 0,-6.1 9.1,-6.1 9.4,0 0,0.6 1,0.6 1,0 -0.2,-3.1 -2.5,-5.7 -5.7,-5.7 -3.1,0 -5.7,2.6 -5.7,5.7 0,3 2.4,5.6 5.4,5.7 3.4,0.2 5.8,-2.5 6,-5.7 0,-0.7 -1,-0.7 -1,0 z"
           id="path132"
           inkscape:connector-curvature="0" /></g></g><g
       class="st1"
       id="g142"
       style="display:inline"><g
         id="g140"><path
           d="m 59.1,25.5 c 0,0.6 0,1.1 0,1.7 0,0.6 1,0.6 1,0 0,-0.6 0,-1.1 0,-1.7 0,-0.6 -1,-0.6 -1,0 z"
           id="path138"
           inkscape:connector-curvature="0" /></g></g><g
       class="st1"
       id="g148"
       style="display:inline"><g
         id="g146"><path
           d="m 59.1,40 c 0,0.6 0,1.1 0,1.7 0,0.6 1,0.6 1,0 0,-0.6 0,-1.1 0,-1.7 0,-0.7 -1,-0.7 -1,0 z"
           id="path144"
           inkscape:connector-curvature="0" /></g></g><g
       class="st1"
       id="g154"
       style="display:inline"><g
         id="g152"><path
           d="m 66,34.1 c 0.6,0 1.1,0 1.7,0 0.6,0 0.6,-1 0,-1 -0.6,0 -1.1,0 -1.7,0 -0.6,0 -0.6,1 0,1 z"
           id="path150"
           inkscape:connector-curvature="0" /></g></g><g
       class="st1"
       id="g160"
       style="display:inline"><g
         id="g158"><path
           d="m 51.5,33.9 c 0.6,0 1.1,0 1.7,0 0.6,0 0.6,-1 0,-1 -0.6,0 -1.1,0 -1.7,0 -0.7,0 -0.7,1 0,1 z"
           id="path156"
           inkscape:connector-curvature="0" /></g></g><g
       class="st1"
       id="g166"
       style="display:inline"><g
         id="g164"><path
           d="m 63.6,38.6 c 0.4,0.4 0.8,0.8 1.2,1.2 0.5,0.5 1.2,-0.3 0.7,-0.7 -0.4,-0.4 -0.8,-0.8 -1.2,-1.2 -0.4,-0.4 -1.1,0.3 -0.7,0.7 z"
           id="path162"
           inkscape:connector-curvature="0" /></g></g><g
       class="st1"
       id="g172"
       style="display:inline"><g
         id="g170"><path
           d="m 53.2,28.5 c 0.4,0.4 0.8,0.8 1.2,1.2 0.5,0.5 1.2,-0.3 0.7,-0.7 -0.4,-0.4 -0.8,-0.8 -1.2,-1.2 -0.5,-0.4 -1.2,0.3 -0.7,0.7 z"
           id="path168"
           inkscape:connector-curvature="0" /></g></g><g
       class="st1"
       id="g178"
       style="display:inline"><g
         id="g176"><path
           d="m 64.4,29.4 c 0.4,-0.4 0.8,-0.8 1.2,-1.2 0.5,-0.5 -0.3,-1.2 -0.7,-0.7 -0.4,0.4 -0.8,0.8 -1.2,1.2 -0.4,0.5 0.3,1.2 0.7,0.7 z"
           id="path174"
           inkscape:connector-curvature="0" /></g></g><g
       class="st1"
       id="g184"
       style="display:inline"><g
         id="g182"><path
           d="m 54,39.6 c 0.4,-0.4 0.8,-0.8 1.2,-1.2 0.5,-0.5 -0.3,-1.2 -0.7,-0.7 -0.4,0.4 -0.8,0.8 -1.2,1.2 -0.5,0.5 0.2,1.2 0.7,0.7 z"
           id="path180"
           inkscape:connector-curvature="0" /></g></g><path
       class="st3"
       d="m 86.1,42.8 c 0,-3.3 -2.8,-5.9 -6.3,-5.9 -2.3,0 -4.3,1.1 -5.4,2.9 -0.4,-0.1 -0.7,-0.2 -1.1,-0.2 -1.3,0 -2.4,0.6 -3.2,1.5 -0.5,-0.2 -1,-0.3 -1.5,-0.3 -2.2,0 -4,1.8 -4,4 0,2 1.6,3.7 3.5,4 0,0 0.1,0 0.1,0 h 0.1 c 0.1,0 0.1,0 0.2,0 0.1,0 0.1,0 0.2,0 H 80 c 0,0 0,0 0.1,0 3.3,-0.2 6,-2.8 6,-6 z"
       id="path186"
       inkscape:connector-curvature="0"
       style="display:inline;fill:none;stroke:#000000;stroke-miterlimit:10" /></g><g
     class="st0"
     id="g266"
     style="display:none"
     transform="translate(0,-54)"><circle
       class="st1"
       cx="24"
       cy="44.599998"
       r="9.3999996"
       id="circle190"
       style="display:inline" /><path
       class="st2"
       d="M 34.9,77.4 H 11.4 V 66.9 c 0,-0.9 0.1,-1.9 0.3,-2.8 0.5,-2.3 1.6,-6.6 5.2,-6.6 2.8,0 5.6,1.6 6.7,3.6 0.7,1.3 2.5,1.6 3.6,0.6 l 4.9,-4.2 c 0.2,-0.2 0.4,-0.3 0.7,-0.4 l 19.7,-7.7 c 0.8,-0.3 2.8,-1.1 3.9,1.5 1.2,2.8 -0.9,3.6 -1.7,4.1 l -18.6,9.7 c -1.3,0.7 -1.2,3.3 -1.2,4.8 0,3.1 0,7.8 0,7.9 z"
       id="path192"
       inkscape:connector-curvature="0"
       style="display:inline;stroke:#000000;stroke-miterlimit:10" /><g
       class="st1"
       id="g198"
       style="display:inline"><g
         id="g196"><path
           d="m 35,27.2 c 0,-2.5 0,-5 0,-7.5 -0.5,0.5 -1.1,0.9 -1.6,1.4 19.3,0 38.6,0 57.9,0 -0.5,-0.5 -0.9,-1.1 -1.4,-1.6 0,14.7 0,29.3 0,44 0.5,-0.5 1.1,-0.9 1.6,-1.4 -11.7,0 -23.5,0 -35.2,0 -1.9,0 -2.1,3 -0.2,3 11.7,0 23.5,0 35.2,0 0.8,0 1.6,-0.5 1.6,-1.4 0,-14.7 0,-29.3 0,-44 0,-0.8 -0.5,-1.6 -1.4,-1.6 -19.3,0 -38.6,0 -57.9,0 -0.8,0 -1.6,0.5 -1.6,1.4 0,2.5 0,5 0,7.5 0,1.9 3,2.1 3,0.2 z"
           id="path194"
           inkscape:connector-curvature="0" /></g></g><path
       class="st4"
       d="M 61.8,41.4"
       id="path200"
       inkscape:connector-curvature="0"
       style="display:inline;fill:none;stroke:#000000;stroke-width:3;stroke-miterlimit:10" /><g
       class="st1"
       id="g206"
       style="display:inline"><g
         id="g204"><path
           d="m 76.5,46.5 c -4.6,2.2 -9.6,0.9 -12.7,-3 -0.6,-0.8 -1.7,0.3 -1.1,1.1 3.6,4.5 9.4,5.7 14.5,3.2 0.9,-0.4 0.2,-1.7 -0.7,-1.3 z"
           id="path202"
           inkscape:connector-curvature="0" /></g></g><g
       class="st1"
       id="g212"
       style="display:inline"><g
         id="g210"><path
           d="m 76.3,28.7 c 5.6,3.1 7.2,9.8 3.5,15 -0.5,0.8 0.8,1.5 1.3,0.8 4.1,-5.9 2.2,-13.6 -4.1,-17.1 -0.8,-0.5 -1.5,0.8 -0.7,1.3 z"
           id="path208"
           inkscape:connector-curvature="0" /></g></g><g
       class="st1"
       id="g218"
       style="display:inline"><g
         id="g216"><path
           d="M 62,39.3 C 61.2,33 65.7,27.7 72.1,27.6 c 1,0 1,-1.5 0,-1.5 -7.2,0 -12.5,6.1 -11.6,13.2 0.1,1 1.6,1 1.5,0 z"
           id="path214"
           inkscape:connector-curvature="0" /></g></g><g
       class="st1"
       id="g224"
       style="display:inline"><g
         id="g222"><path
           d="m 72.3,28.2 c -0.2,-1 -0.3,-2 -0.5,-3 -0.4,0.4 -0.8,0.8 -1.2,1.2 1,0.4 1.9,0.7 2.9,1.1 -0.1,-0.6 -0.3,-1.1 -0.4,-1.7 -0.8,0.6 -1.6,1.3 -2.4,1.9 -0.4,0.3 -0.4,1.1 0,1.4 0.4,0.4 1,0.3 1.4,0 0.8,-0.6 1.6,-1.3 2.4,-1.9 0.6,-0.5 0.2,-1.4 -0.4,-1.7 -1,-0.4 -1.9,-0.7 -2.9,-1.1 -0.8,-0.3 -1.3,0.6 -1.2,1.2 0.2,1 0.3,2 0.5,3 0.1,0.5 0.8,0.8 1.2,0.7 0.5,-0.1 0.7,-0.6 0.6,-1.1 z"
           id="path220"
           inkscape:connector-curvature="0" /></g></g><g
       class="st1"
       id="g230"
       style="display:inline"><g
         id="g228"><path
           d="m 80.6,45.3 c 0.1,-1 0.1,-2 0.2,-3.1 -0.5,0.3 -1,0.6 -1.5,0.9 0.8,0.6 1.7,1.2 2.5,1.7 0,-0.6 0,-1.2 0,-1.7 -0.9,0.4 -1.8,0.9 -2.8,1.3 -1.2,0.6 -0.1,2.3 1,1.7 0.9,-0.4 1.8,-0.9 2.8,-1.3 0.7,-0.4 0.6,-1.3 0,-1.7 -0.8,-0.6 -1.7,-1.2 -2.5,-1.7 -0.7,-0.5 -1.5,0.2 -1.5,0.9 -0.1,1 -0.1,2 -0.2,3.1 0,1.1 2,1.1 2,-0.1 z"
           id="path226"
           inkscape:connector-curvature="0" /></g></g><g
       class="st1"
       id="g236"
       style="display:inline"><g
         id="g234"><path
           d="m 63.4,45.3 c -0.1,-1 -0.1,-2 -0.2,-3.1 -0.5,0.3 -1,0.6 -1.5,0.9 0.9,0.5 1.8,0.9 2.8,1.4 0,-0.6 0,-1.2 0,-1.7 -0.9,0.6 -1.7,1.1 -2.6,1.7 -1.1,0.7 -0.1,2.4 1,1.7 0.9,-0.6 1.7,-1.1 2.6,-1.7 0.6,-0.4 0.7,-1.4 0,-1.7 -0.9,-0.5 -1.8,-0.9 -2.8,-1.4 -0.6,-0.3 -1.6,0.1 -1.5,0.9 0.1,1 0.1,2 0.2,3.1 0.1,1.2 2.1,1.2 2,-0.1 z"
           id="path232"
           inkscape:connector-curvature="0" /></g></g><path
       class="st3"
       d="m 75.2,43.4 h -6.1 c -0.8,0 -1.5,-0.7 -1.5,-1.5 v -6.3 c 0,-0.8 0.7,-1.5 1.5,-1.5 h 6.1 c 0.8,0 1.5,0.7 1.5,1.5 v 6.3 c 0,0.9 -0.7,1.5 -1.5,1.5 z"
       id="path238"
       inkscape:connector-curvature="0"
       style="display:inline;fill:none;stroke:#000000;stroke-miterlimit:10" /><path
       class="st3"
       d="m 77.2,34.1 h -10 c -0.3,0 -0.5,-0.2 -0.5,-0.5 v -0.9 c 0,-0.3 0.2,-0.5 0.5,-0.5 h 10 c 0.3,0 0.5,0.2 0.5,0.5 v 0.9 c 0,0.3 -0.3,0.5 -0.5,0.5 z"
       id="path240"
       inkscape:connector-curvature="0"
       style="display:inline;fill:none;stroke:#000000;stroke-miterlimit:10" /><g
       class="st1"
       id="g246"
       style="display:inline"><g
         id="g244"><path
           d="m 69.8,36.5 c 0,1.7 0,3.4 0,5.1 0,0.6 1,0.6 1,0 0,-1.7 0,-3.4 0,-5.1 0,-0.6 -1,-0.6 -1,0 z"
           id="path242"
           inkscape:connector-curvature="0" /></g></g><g
       class="st1"
       id="g252"
       style="display:inline"><g
         id="g250"><path
           d="m 71.6,36.5 c 0,1.7 0,3.4 0,5.1 0,0.6 1,0.6 1,0 0,-1.7 0,-3.4 0,-5.1 0,-0.6 -1,-0.6 -1,0 z"
           id="path248"
           inkscape:connector-curvature="0" /></g></g><g
       class="st1"
       id="g258"
       style="display:inline"><g
         id="g256"><path
           d="m 71.7,31.2 c 0,0.3 0,0.6 0,0.8 0,0.6 1,0.6 1,0 0,-0.3 0,-0.6 0,-0.8 0,-0.6 -1,-0.6 -1,0 z"
           id="path254"
           inkscape:connector-curvature="0" /></g></g><g
       class="st1"
       id="g264"
       style="display:inline"><g
         id="g262"><path
           d="m 73.5,36.5 c 0,1.7 0,3.4 0,5.1 0,0.6 1,0.6 1,0 0,-1.7 0,-3.4 0,-5.1 0,-0.6 -1,-0.6 -1,0 z"
           id="path260"
           inkscape:connector-curvature="0" /></g></g></g><g
     class="st0"
     id="g292"
     style="display:none"
     transform="translate(0,-54)"><circle
       class="st1"
       cx="24"
       cy="44.599998"
       r="9.3999996"
       id="circle268"
       style="display:inline" /><path
       class="st2"
       d="M 34.9,77.4 H 11.4 V 66.9 c 0,-0.9 0.1,-1.9 0.3,-2.8 0.5,-2.3 1.6,-6.6 5.2,-6.6 2.8,0 5.6,1.6 6.7,3.6 0.7,1.3 2.5,1.6 3.6,0.6 l 4.9,-4.2 c 0.2,-0.2 0.4,-0.3 0.7,-0.4 l 19.7,-7.7 c 0.8,-0.3 2.8,-1.1 3.9,1.5 1.2,2.8 -0.9,3.6 -1.7,4.1 l -18.6,9.7 c -1.3,0.7 -1.2,3.3 -1.2,4.8 0,3.1 0,7.8 0,7.9 z"
       id="path270"
       inkscape:connector-curvature="0"
       style="display:inline;stroke:#000000;stroke-miterlimit:10" /><g
       class="st1"
       id="g276"
       style="display:inline"><g
         id="g274"><path
           d="m 35,27.2 c 0,-2.5 0,-5 0,-7.5 -0.5,0.5 -1.1,0.9 -1.6,1.4 19.3,0 38.6,0 57.9,0 -0.5,-0.5 -0.9,-1.1 -1.4,-1.6 0,14.7 0,29.3 0,44 0.5,-0.5 1.1,-0.9 1.6,-1.4 -11.7,0 -23.5,0 -35.2,0 -1.9,0 -2.1,3 -0.2,3 11.7,0 23.5,0 35.2,0 0.8,0 1.6,-0.5 1.6,-1.4 0,-14.7 0,-29.3 0,-44 0,-0.8 -0.5,-1.6 -1.4,-1.6 -19.3,0 -38.6,0 -57.9,0 -0.8,0 -1.6,0.5 -1.6,1.4 0,2.5 0,5 0,7.5 0,1.9 3,2.1 3,0.2 z"
           id="path272"
           inkscape:connector-curvature="0" /></g></g><path
       class="st4"
       d="M 61.8,41.4"
       id="path278"
       inkscape:connector-curvature="0"
       style="display:inline;fill:none;stroke:#000000;stroke-width:3;stroke-miterlimit:10" /><polygon
       class="st5"
       points="62.2,30.8 78.7,30.8 76.5,53.1 64.9,53.1 "
       id="polygon280"
       style="display:inline;fill:none;stroke:#000000;stroke-width:1.5;stroke-miterlimit:10" /><rect
       x="61.799999"
       y="27.5"
       class="st1"
       width="17.299999"
       height="1.2"
       id="rect282"
       style="display:inline" /><rect
       x="68.5"
       y="25.799999"
       class="st1"
       width="3.7"
       height="1.2"
       id="rect284"
       style="display:inline" /><rect
       x="67.300003"
       y="34.700001"
       class="st1"
       width="1.2"
       height="13.5"
       id="rect286"
       style="display:inline" /><rect
       x="72.900002"
       y="34.700001"
       class="st1"
       width="1.2"
       height="13.5"
       id="rect288"
       style="display:inline" /><rect
       x="70.099998"
       y="34.700001"
       class="st1"
       width="1.2"
       height="13.5"
       id="rect290"
       style="display:inline" /></g><g
     class="st0"
     id="g318"
     style="display:none"
     transform="translate(0,-54)"><circle
       class="st1"
       cx="24"
       cy="44.599998"
       r="9.3999996"
       id="circle294"
       style="display:inline" /><path
       class="st2"
       d="M 34.9,77.4 H 11.4 V 66.9 c 0,-0.9 0.1,-1.9 0.3,-2.8 0.5,-2.3 1.6,-6.6 5.2,-6.6 2.8,0 5.6,1.6 6.7,3.6 0.7,1.3 2.5,1.6 3.6,0.6 l 4.9,-4.2 c 0.2,-0.2 0.4,-0.3 0.7,-0.4 l 19.7,-7.7 c 0.8,-0.3 2.8,-1.1 3.9,1.5 1.2,2.8 -0.9,3.6 -1.7,4.1 l -18.6,9.7 c -1.3,0.7 -1.2,3.3 -1.2,4.8 0,3.1 0,7.8 0,7.9 z"
       id="path296"
       inkscape:connector-curvature="0"
       style="display:inline;stroke:#000000;stroke-miterlimit:10" /><g
       class="st1"
       id="g302"
       style="display:inline"><g
         id="g300"><path
           d="m 35,27.2 c 0,-2.5 0,-5 0,-7.5 -0.5,0.5 -1.1,0.9 -1.6,1.4 19.3,0 38.6,0 57.9,0 -0.5,-0.5 -0.9,-1.1 -1.4,-1.6 0,14.7 0,29.3 0,44 0.5,-0.5 1.1,-0.9 1.6,-1.4 -11.7,0 -23.5,0 -35.2,0 -1.9,0 -2.1,3 -0.2,3 11.7,0 23.5,0 35.2,0 0.8,0 1.6,-0.5 1.6,-1.4 0,-14.7 0,-29.3 0,-44 0,-0.8 -0.5,-1.6 -1.4,-1.6 -19.3,0 -38.6,0 -57.9,0 -0.8,0 -1.6,0.5 -1.6,1.4 0,2.5 0,5 0,7.5 0,1.9 3,2.1 3,0.2 z"
           id="path298"
           inkscape:connector-curvature="0" /></g></g><path
       class="st4"
       d="M 61.8,41.4"
       id="path304"
       inkscape:connector-curvature="0"
       style="display:inline;fill:none;stroke:#000000;stroke-width:3;stroke-miterlimit:10" /><g
       class="st1"
       id="g310"
       style="display:inline"><g
         id="g308"><path
           d="m 61.6,51.5 c 7.3,0 14.5,0 21.8,0 1,0 1,-1.5 0,-1.5 -7.3,0 -14.5,0 -21.8,0 -0.9,0 -0.9,1.5 0,1.5 z"
           id="path306"
           inkscape:connector-curvature="0" /></g></g><path
       class="st1"
       d="M 67.5,48.9 H 63 c -0.5,0 -1,-0.5 -1,-1 V 35.8 c 0,-0.5 0.5,-1 1,-1 h 4.5 c 0.6,0 1,0.5 1,1 v 12.1 c 0,0.5 -0.4,1 -1,1 z"
       id="path312"
       inkscape:connector-curvature="0"
       style="display:inline" /><path
       class="st1"
       d="m 74.9,48.9 h -4.5 c -0.5,0 -1,-0.5 -1,-1 v -8.4 c 0,-0.5 0.5,-1 1,-1 h 4.5 c 0.6,0 1,0.5 1,1 v 8.4 c 0,0.5 -0.4,1 -1,1 z"
       id="path314"
       inkscape:connector-curvature="0"
       style="display:inline" /><path
       class="st1"
       d="m 82.3,48.9 h -4.5 c -0.6,0 -1,-0.5 -1,-1 V 29 c 0,-0.6 0.4,-1 1,-1 h 4.5 c 0.5,0 1,0.4 1,1 v 18.8 c 0,0.6 -0.4,1.1 -1,1.1 z"
       id="path316"
       inkscape:connector-curvature="0"
       style="display:inline" /></g><g
     class="st0"
     id="g336"
     style="display:none"
     transform="translate(0,-54)"><circle
       class="st1"
       cx="24"
       cy="44.599998"
       r="9.3999996"
       id="circle320"
       style="display:inline" /><path
       class="st2"
       d="M 34.9,77.4 H 11.4 V 66.9 c 0,-0.9 0.1,-1.9 0.3,-2.8 0.5,-2.3 1.6,-6.6 5.2,-6.6 2.8,0 5.6,1.6 6.7,3.6 0.7,1.3 2.5,1.6 3.6,0.6 l 4.9,-4.2 c 0.2,-0.2 0.4,-0.3 0.7,-0.4 l 19.7,-7.7 c 0.8,-0.3 2.8,-1.1 3.9,1.5 1.2,2.8 -0.9,3.6 -1.7,4.1 l -18.6,9.7 c -1.3,0.7 -1.2,3.3 -1.2,4.8 0,3.1 0,7.8 0,7.9 z"
       id="path322"
       inkscape:connector-curvature="0"
       style="display:inline;stroke:#000000;stroke-miterlimit:10" /><g
       class="st1"
       id="g328"
       style="display:inline"><g
         id="g326"><path
           d="m 35,27.2 c 0,-2.5 0,-5 0,-7.5 -0.5,0.5 -1.1,0.9 -1.6,1.4 19.3,0 38.6,0 57.9,0 -0.5,-0.5 -0.9,-1.1 -1.4,-1.6 0,14.7 0,29.3 0,44 0.5,-0.5 1.1,-0.9 1.6,-1.4 -11.7,0 -23.5,0 -35.2,0 -1.9,0 -2.1,3 -0.2,3 11.7,0 23.5,0 35.2,0 0.8,0 1.6,-0.5 1.6,-1.4 0,-14.7 0,-29.3 0,-44 0,-0.8 -0.5,-1.6 -1.4,-1.6 -19.3,0 -38.6,0 -57.9,0 -0.8,0 -1.6,0.5 -1.6,1.4 0,2.5 0,5 0,7.5 0,1.9 3,2.1 3,0.2 z"
           id="path324"
           inkscape:connector-curvature="0" /></g></g><path
       class="st4"
       d="M 61.8,41.4"
       id="path330"
       inkscape:connector-curvature="0"
       style="display:inline;fill:none;stroke:#000000;stroke-width:3;stroke-miterlimit:10" /><path
       class="st3"
       d="m 78.3,40.7 c 0,5.4 -4.4,9.8 -9.8,9.8 -5.4,0 -9.8,-4.4 -9.8,-9.8 0,-5.4 4.4,-9.8 9.8,-9.8 v 9.8 z"
       id="path332"
       inkscape:connector-curvature="0"
       style="display:inline;fill:none;stroke:#000000;stroke-miterlimit:10" /><path
       class="st3"
       d="m 80.3,38.6 c 0,-5.4 -4.4,-9.8 -9.8,-9.8 v 9.8 z"
       id="path334"
       inkscape:connector-curvature="0"
       style="display:inline;fill:none;stroke:#000000;stroke-miterlimit:10" /></g><g
     class="st0"
     id="g358"
     style="display:none"
     transform="translate(0,-54)"><circle
       class="st1"
       cx="24"
       cy="44.599998"
       r="9.3999996"
       id="circle338"
       style="display:inline" /><path
       class="st2"
       d="M 34.9,77.4 H 11.4 V 66.9 c 0,-0.9 0.1,-1.9 0.3,-2.8 0.5,-2.3 1.6,-6.6 5.2,-6.6 2.8,0 5.6,1.6 6.7,3.6 0.7,1.3 2.5,1.6 3.6,0.6 l 4.9,-4.2 c 0.2,-0.2 0.4,-0.3 0.7,-0.4 l 19.7,-7.7 c 0.8,-0.3 2.8,-1.1 3.9,1.5 1.2,2.8 -0.9,3.6 -1.7,4.1 l -18.6,9.7 c -1.3,0.7 -1.2,3.3 -1.2,4.8 0,3.1 0,7.8 0,7.9 z"
       id="path340"
       inkscape:connector-curvature="0"
       style="display:inline;stroke:#000000;stroke-miterlimit:10" /><g
       class="st1"
       id="g346"
       style="display:inline"><g
         id="g344"><path
           d="m 35,27.2 c 0,-2.5 0,-5 0,-7.5 -0.5,0.5 -1.1,0.9 -1.6,1.4 19.3,0 38.6,0 57.9,0 -0.5,-0.5 -0.9,-1.1 -1.4,-1.6 0,14.7 0,29.3 0,44 0.5,-0.5 1.1,-0.9 1.6,-1.4 -11.7,0 -23.5,0 -35.2,0 -1.9,0 -2.1,3 -0.2,3 11.7,0 23.5,0 35.2,0 0.8,0 1.6,-0.5 1.6,-1.4 0,-14.7 0,-29.3 0,-44 0,-0.8 -0.5,-1.6 -1.4,-1.6 -19.3,0 -38.6,0 -57.9,0 -0.8,0 -1.6,0.5 -1.6,1.4 0,2.5 0,5 0,7.5 0,1.9 3,2.1 3,0.2 z"
           id="path342"
           inkscape:connector-curvature="0" /></g></g><path
       class="st4"
       d="M 61.8,41.4"
       id="path348"
       inkscape:connector-curvature="0"
       style="display:inline;fill:none;stroke:#000000;stroke-width:3;stroke-miterlimit:10" /><path
       class="st1"
       d="M 66.9,42.7 C 65.6,42 64.7,40.6 64.7,39 H 57 c 0,4.5 2.4,8.4 6.1,10.4 z"
       id="path350"
       inkscape:connector-curvature="0"
       style="display:inline" /><path
       class="st1"
       d="m 66.9,35.2 c 0.6,-0.4 1.3,-0.6 2.1,-0.6 0.8,0 1.5,0.2 2.1,0.6 l 3.8,-6.7 c -1.8,-1 -3.8,-1.6 -6,-1.6 -2.2,0 -4.2,0.6 -5.9,1.6 z"
       id="path352"
       inkscape:connector-curvature="0"
       style="display:inline" /><path
       class="st1"
       d="m 71.2,42.7 3.8,6.7 c 3.6,-2.1 6,-6 6,-10.4 h -7.7 c 0,1.5 -0.9,2.9 -2.1,3.7 z"
       id="path354"
       inkscape:connector-curvature="0"
       style="display:inline" /><circle
       class="st1"
       cx="69"
       cy="39"
       r="3.0999999"
       id="circle356"
       style="display:inline" /></g><g
     class="st0"
     id="g374"
     style="display:none"
     transform="translate(0,-54)"><circle
       class="st1"
       cx="24"
       cy="44.599998"
       r="9.3999996"
       id="circle360"
       style="display:inline" /><path
       class="st2"
       d="M 34.9,77.4 H 11.4 V 66.9 c 0,-0.9 0.1,-1.9 0.3,-2.8 0.5,-2.3 1.6,-6.6 5.2,-6.6 2.8,0 5.6,1.6 6.7,3.6 0.7,1.3 2.5,1.6 3.6,0.6 l 4.9,-4.2 c 0.2,-0.2 0.4,-0.3 0.7,-0.4 l 19.7,-7.7 c 0.8,-0.3 2.8,-1.1 3.9,1.5 1.2,2.8 -0.9,3.6 -1.7,4.1 l -18.6,9.7 c -1.3,0.7 -1.2,3.3 -1.2,4.8 0,3.1 0,7.8 0,7.9 z"
       id="path362"
       inkscape:connector-curvature="0"
       style="display:inline;stroke:#000000;stroke-miterlimit:10" /><g
       class="st1"
       id="g368"
       style="display:inline"><g
         id="g366"><path
           d="m 35,27.2 c 0,-2.5 0,-5 0,-7.5 -0.5,0.5 -1.1,0.9 -1.6,1.4 19.3,0 38.6,0 57.9,0 -0.5,-0.5 -0.9,-1.1 -1.4,-1.6 0,14.7 0,29.3 0,44 0.5,-0.5 1.1,-0.9 1.6,-1.4 -11.7,0 -23.5,0 -35.2,0 -1.9,0 -2.1,3 -0.2,3 11.7,0 23.5,0 35.2,0 0.8,0 1.6,-0.5 1.6,-1.4 0,-14.7 0,-29.3 0,-44 0,-0.8 -0.5,-1.6 -1.4,-1.6 -19.3,0 -38.6,0 -57.9,0 -0.8,0 -1.6,0.5 -1.6,1.4 0,2.5 0,5 0,7.5 0,1.9 3,2.1 3,0.2 z"
           id="path364"
           inkscape:connector-curvature="0" /></g></g><path
       class="st5"
       d="M 85.1,44.1 H 60.7 V 32.5 c 0,-2.3 1.8,-4.1 4.1,-4.1 H 81 c 2.3,0 4.1,1.8 4.1,4.1 z"
       id="path370"
       inkscape:connector-curvature="0"
       style="display:inline;fill:none;stroke:#000000;stroke-width:1.5;stroke-miterlimit:10" /><path
       class="st6"
       d="m 75.7,45.9 c 0,0.5 -0.5,1 -1,1 h -3.6 c -0.5,0 -1,-0.4 -1,-1 h -9.3 v 0.4 c 0,0.9 0.7,1.7 1.7,1.7 h 21 c 0.9,0 1.7,-0.7 1.7,-1.7 v -0.4 z"
       id="path372"
       inkscape:connector-curvature="0"
       style="display:inline;stroke:#000000;stroke-width:1.5;stroke-miterlimit:10" /></g><g
     class="st0"
     id="g396"
     style="display:none"
     transform="translate(0,-54)"><circle
       class="st1"
       cx="24"
       cy="44.599998"
       r="9.3999996"
       id="circle376"
       style="display:inline" /><path
       class="st2"
       d="M 34.9,77.4 H 11.4 V 66.9 c 0,-0.9 0.1,-1.9 0.3,-2.8 0.5,-2.3 1.6,-6.6 5.2,-6.6 2.8,0 5.6,1.6 6.7,3.6 0.7,1.3 2.5,1.6 3.6,0.6 l 4.9,-4.2 c 0.2,-0.2 0.4,-0.3 0.7,-0.4 l 19.7,-7.7 c 0.8,-0.3 2.8,-1.1 3.9,1.5 1.2,2.8 -0.9,3.6 -1.7,4.1 l -18.6,9.7 c -1.3,0.7 -1.2,3.3 -1.2,4.8 0,3.1 0,7.8 0,7.9 z"
       id="path378"
       inkscape:connector-curvature="0"
       style="display:inline;stroke:#000000;stroke-miterlimit:10" /><g
       class="st1"
       id="g384"
       style="display:inline"><g
         id="g382"><path
           d="m 35,27.2 c 0,-2.5 0,-5 0,-7.5 -0.5,0.5 -1.1,0.9 -1.6,1.4 19.3,0 38.6,0 57.9,0 -0.5,-0.5 -0.9,-1.1 -1.4,-1.6 0,14.7 0,29.3 0,44 0.5,-0.5 1.1,-0.9 1.6,-1.4 -11.7,0 -23.5,0 -35.2,0 -1.9,0 -2.1,3 -0.2,3 11.7,0 23.5,0 35.2,0 0.8,0 1.6,-0.5 1.6,-1.4 0,-14.7 0,-29.3 0,-44 0,-0.8 -0.5,-1.6 -1.4,-1.6 -19.3,0 -38.6,0 -57.9,0 -0.8,0 -1.6,0.5 -1.6,1.4 0,2.5 0,5 0,7.5 0,1.9 3,2.1 3,0.2 z"
           id="path380"
           inkscape:connector-curvature="0" /></g></g><polygon
       class="st5"
       points="67.7,31.2 81.3,31.2 80.5,52.5 68.5,52.5 "
       id="polygon386"
       style="display:inline;fill:none;stroke:#000000;stroke-width:1.5;stroke-miterlimit:10" /><path
       class="st3"
       d="m 67.9,36 c 0.5,-0.6 2.4,-2.3 4.7,-2.2 1,0.1 2,0.5 2.3,0.6 1.3,0.5 1.6,1 2.4,1.3 0.8,0.3 2,0.4 4,-0.6"
       id="path388"
       inkscape:connector-curvature="0"
       style="display:inline;fill:none;stroke:#000000;stroke-miterlimit:10" /><circle
       class="st7"
       cx="73.5"
       cy="40.200001"
       r="1"
       id="circle390"
       style="display:inline;fill:none;stroke:#000000;stroke-width:0.5;stroke-miterlimit:10" /><circle
       class="st7"
       cx="76.5"
       cy="38.400002"
       r="0.69999999"
       id="circle392"
       style="display:inline;fill:none;stroke:#000000;stroke-width:0.5;stroke-miterlimit:10" /><circle
       class="st8"
       cx="72.599998"
       cy="36.900002"
       r="0.40000001"
       id="circle394"
       style="display:inline;fill:none;stroke:#000000;stroke-width:0.25;stroke-miterlimit:10" /></g><g
     class="st0"
     id="g412"
     style="display:none"
     transform="translate(0,-54)"><circle
       class="st1"
       cx="24"
       cy="44.599998"
       r="9.3999996"
       id="circle398"
       style="display:inline" /><path
       class="st2"
       d="M 34.9,77.4 H 11.4 V 66.9 c 0,-0.9 0.1,-1.9 0.3,-2.8 0.5,-2.3 1.6,-6.6 5.2,-6.6 2.8,0 5.6,1.6 6.7,3.6 0.7,1.3 2.5,1.6 3.6,0.6 l 4.9,-4.2 c 0.2,-0.2 0.4,-0.3 0.7,-0.4 l 19.7,-7.7 c 0.8,-0.3 2.8,-1.1 3.9,1.5 1.2,2.8 -0.9,3.6 -1.7,4.1 l -18.6,9.7 c -1.3,0.7 -1.2,3.3 -1.2,4.8 0,3.1 0,7.8 0,7.9 z"
       id="path400"
       inkscape:connector-curvature="0"
       style="display:inline;stroke:#000000;stroke-miterlimit:10" /><g
       class="st1"
       id="g406"
       style="display:inline"><g
         id="g404"><path
           d="m 35,27.2 c 0,-2.5 0,-5 0,-7.5 -0.5,0.5 -1.1,0.9 -1.6,1.4 19.3,0 38.6,0 57.9,0 -0.5,-0.5 -0.9,-1.1 -1.4,-1.6 0,14.7 0,29.3 0,44 0.5,-0.5 1.1,-0.9 1.6,-1.4 -11.7,0 -23.5,0 -35.2,0 -1.9,0 -2.1,3 -0.2,3 11.7,0 23.5,0 35.2,0 0.8,0 1.6,-0.5 1.6,-1.4 0,-14.7 0,-29.3 0,-44 0,-0.8 -0.5,-1.6 -1.4,-1.6 -19.3,0 -38.6,0 -57.9,0 -0.8,0 -1.6,0.5 -1.6,1.4 0,2.5 0,5 0,7.5 0,1.9 3,2.1 3,0.2 z"
           id="path402"
           inkscape:connector-curvature="0" /></g></g><g
       class="st1"
       id="g410"
       style="display:inline"><path
         d="m 72.2,27.4 c 5.1,0 8.2,2.4 8.2,6.6 0,5.7 -5.9,6.5 -5.9,10.9 h -5.1 c 0,-5.9 4.7,-6.2 4.7,-9.8 0,-1.6 -1,-2.3 -2.7,-2.3 -1.9,0 -2.8,1.1 -2.9,3.4 h -5.2 c 0.2,-5.6 3.5,-8.8 8.9,-8.8 z m 3,23.7 c 0,1.9 -1.4,3.3 -3.3,3.3 -1.9,0 -3.2,-1.4 -3.2,-3.3 0,-1.9 1.3,-3.3 3.2,-3.3 2,0 3.3,1.4 3.3,3.3 z"
         id="path408"
         inkscape:connector-curvature="0" /></g></g><g
     class="st0"
     id="g426"
     style="display:none"
     transform="translate(0,-54)"><circle
       class="st1"
       cx="24"
       cy="44.599998"
       r="9.3999996"
       id="circle414"
       style="display:inline" /><path
       class="st2"
       d="M 34.9,77.4 H 11.4 V 66.9 c 0,-0.9 0.1,-1.9 0.3,-2.8 0.5,-2.3 1.6,-6.6 5.2,-6.6 2.8,0 5.6,1.6 6.7,3.6 0.7,1.3 2.5,1.6 3.6,0.6 l 4.9,-4.2 c 0.2,-0.2 0.4,-0.3 0.7,-0.4 l 19.7,-7.7 c 0.8,-0.3 2.8,-1.1 3.9,1.5 1.2,2.8 -0.9,3.6 -1.7,4.1 l -18.6,9.7 c -1.3,0.7 -1.2,3.3 -1.2,4.8 0,3.1 0,7.8 0,7.9 z"
       id="path416"
       inkscape:connector-curvature="0"
       style="display:inline;stroke:#000000;stroke-miterlimit:10" /><g
       class="st1"
       id="g422"
       style="display:inline"><g
         id="g420"><path
           d="m 35,27.2 c 0,-2.5 0,-5 0,-7.5 -0.5,0.5 -1.1,0.9 -1.6,1.4 19.3,0 38.6,0 57.9,0 -0.5,-0.5 -0.9,-1.1 -1.4,-1.6 0,14.7 0,29.3 0,44 0.5,-0.5 1.1,-0.9 1.6,-1.4 -11.7,0 -23.5,0 -35.2,0 -1.9,0 -2.1,3 -0.2,3 11.7,0 23.5,0 35.2,0 0.8,0 1.6,-0.5 1.6,-1.4 0,-14.7 0,-29.3 0,-44 0,-0.8 -0.5,-1.6 -1.4,-1.6 -19.3,0 -38.6,0 -57.9,0 -0.8,0 -1.6,0.5 -1.6,1.4 0,2.5 0,5 0,7.5 0,1.9 3,2.1 3,0.2 z"
           id="path418"
           inkscape:connector-curvature="0" /></g></g><path
       class="st1"
       d="m 71.9,25.8 c -5.5,0 -10,4.5 -10,10 0,5.5 6,13.3 10,18.7 4.3,-6.1 10,-13.1 10,-18.7 0,-5.6 -4.5,-10 -10,-10 z m 0,15.7 c -3.2,0 -5.9,-2.6 -5.9,-5.9 0,-3.2 2.6,-5.9 5.9,-5.9 3.2,0 5.9,2.6 5.9,5.9 -0.1,3.3 -2.7,5.9 -5.9,5.9 z"
       id="path424"
       inkscape:connector-curvature="0"
       style="display:inline" /></g><g
     class="st0"
     id="g476"
     style="display:none"
     transform="translate(0,-54)"><circle
       class="st1"
       cx="24"
       cy="44.599998"
       r="9.3999996"
       id="circle428"
       style="display:inline" /><path
       class="st2"
       d="M 34.9,77.4 H 11.4 V 66.9 c 0,-0.9 0.1,-1.9 0.3,-2.8 0.5,-2.3 1.6,-6.6 5.2,-6.6 2.8,0 5.6,1.6 6.7,3.6 0.7,1.3 2.5,1.6 3.6,0.6 l 4.9,-4.2 c 0.2,-0.2 0.4,-0.3 0.7,-0.4 l 19.7,-7.7 c 0.8,-0.3 2.8,-1.1 3.9,1.5 1.2,2.8 -0.9,3.6 -1.7,4.1 l -18.6,9.7 c -1.3,0.7 -1.2,3.3 -1.2,4.8 0,3.1 0,7.8 0,7.9 z"
       id="path430"
       inkscape:connector-curvature="0"
       style="display:inline;stroke:#000000;stroke-miterlimit:10" /><g
       class="st1"
       id="g436"
       style="display:inline"><g
         id="g434"><path
           d="m 35,27.2 c 0,-2.5 0,-5 0,-7.5 -0.5,0.5 -1.1,0.9 -1.6,1.4 19.3,0 38.6,0 57.9,0 -0.5,-0.5 -0.9,-1.1 -1.4,-1.6 0,14.7 0,29.3 0,44 0.5,-0.5 1.1,-0.9 1.6,-1.4 -11.7,0 -23.5,0 -35.2,0 -1.9,0 -2.1,3 -0.2,3 11.7,0 23.5,0 35.2,0 0.8,0 1.6,-0.5 1.6,-1.4 0,-14.7 0,-29.3 0,-44 0,-0.8 -0.5,-1.6 -1.4,-1.6 -19.3,0 -38.6,0 -57.9,0 -0.8,0 -1.6,0.5 -1.6,1.4 0,2.5 0,5 0,7.5 0,1.9 3,2.1 3,0.2 z"
           id="path432"
           inkscape:connector-curvature="0" /></g></g><path
       class="st3"
       d="m 67,45.9 c -2.1,-3.1 -3.9,-6.8 -3.9,-9.6 0,-4.9 4,-8.9 8.9,-8.9 4.9,0 8.9,4 8.9,8.9 0,2.8 -1.7,6.5 -3.9,9.6"
       id="path438"
       inkscape:connector-curvature="0"
       style="display:inline;fill:none;stroke:#000000;stroke-miterlimit:10" /><g
       class="st1"
       id="g444"
       style="display:inline"><g
         id="g442"><path
           d="m 66.8,46.9 c 3.5,0 7,0 10.5,0 1.3,0 1.3,-2 0,-2 -3.5,0 -7,0 -10.5,0 -1.3,0 -1.3,2 0,2 z"
           id="path440"
           inkscape:connector-curvature="0" /></g></g><g
       class="st1"
       id="g450"
       style="display:inline"><g
         id="g448"><path
           d="m 67.3,48.4 c 3.1,0 6.2,0 9.3,0 0.6,0 0.6,-1 0,-1 -3.1,0 -6.2,0 -9.3,0 -0.6,0 -0.6,1 0,1 z"
           id="path446"
           inkscape:connector-curvature="0" /></g></g><g
       class="st1"
       id="g456"
       style="display:inline"><g
         id="g454"><path
           d="m 67.3,49.9 c 3.1,0 6.2,0 9.3,0 0.6,0 0.6,-1 0,-1 -3.1,0 -6.2,0 -9.3,0 -0.6,0 -0.6,1 0,1 z"
           id="path452"
           inkscape:connector-curvature="0" /></g></g><g
       class="st1"
       id="g462"
       style="display:inline"><g
         id="g460"><path
           d="m 67.3,51.4 c 3.1,0 6.2,0 9.3,0 0.6,0 0.6,-1 0,-1 -3.1,0 -6.2,0 -9.3,0 -0.6,0 -0.6,1 0,1 z"
           id="path458"
           inkscape:connector-curvature="0" /></g></g><g
       class="st1"
       id="g468"
       style="display:inline"><g
         id="g466"><path
           d="m 67.3,52.9 c 3.1,0 6.2,0 9.3,0 0.6,0 0.6,-1 0,-1 -3.1,0 -6.2,0 -9.3,0 -0.6,0 -0.6,1 0,1 z"
           id="path464"
           inkscape:connector-curvature="0" /></g></g><path
       class="st3"
       d="m 73.4,55.5 h -2.8 c -0.8,0 -1.4,-0.6 -1.4,-1.4 v -0.2 h 5.6 v 0.2 c 0,0.7 -0.7,1.4 -1.4,1.4 z"
       id="path470"
       inkscape:connector-curvature="0"
       style="display:inline;fill:none;stroke:#000000;stroke-miterlimit:10" /><path
       class="st7"
       d="m 69.6,45 v -9.8 c 0.1,0.3 0.2,1.2 0.6,1.2 0.4,0 1.1,-1.3 0.8,-1.7 -0.1,-0.2 -0.5,-0.2 -0.6,0 -0.3,0.3 0.1,1.6 0.8,1.8 0.8,0.2 1.8,-1.2 1.5,-1.7 -0.1,-0.3 -0.6,-0.4 -0.8,-0.2 -0.4,0.4 0.2,2.1 0.9,2.1 0.4,0 1,-0.6 1.2,-1.5"
       id="path472"
       inkscape:connector-curvature="0"
       style="display:inline;fill:none;stroke:#000000;stroke-width:0.5;stroke-miterlimit:10" /><line
       class="st7"
       x1="73.900002"
       y1="45"
       x2="73.900002"
       y2="35.200001"
       id="line474"
       style="display:inline;fill:none;stroke:#000000;stroke-width:0.5;stroke-miterlimit:10" /></g><g
     id="g492"
     transform="translate(-2.1186441,-29.635593)"
     style="fill:#75c140;fill-opacity:1"><ellipse
       cx="17.58683"
       cy="61.879936"
       id="circle478"
       style="fill:#2affec;fill-opacity:1;stroke-width:1.07971406"
       rx="9.7625771"
       ry="10.551368" /><path
       class="st9"
       d="M 28.907268,98.697485 H 4.500824 V 86.91138 c 0,-1.010237 0.1038572,-2.132723 0.3115716,-3.142961 0.5192861,-2.581717 1.6617153,-7.408407 5.4005754,-7.408407 2.908002,0 5.816003,1.795977 6.958432,4.040949 0.727001,1.459232 2.596431,1.795978 3.73886,0.673492 l 5.089003,-4.714441 c 0.207714,-0.224497 0.415429,-0.336746 0.727,-0.448995 l 20.45987,-8.643141 c 0.830857,-0.336746 2.908001,-1.234735 4.050431,1.683729 1.246286,3.14296 -0.934715,4.040949 -1.765573,4.602192 l -19.31744,10.888114 c -1.350144,0.78574 -1.246286,3.704203 -1.246286,5.387932 0,3.479702 0,8.755392 0,8.867642 z"
       id="path480"
       inkscape:connector-curvature="0"
       style="fill:#2affec;fill-opacity:1;stroke:#000000;stroke-width:1.07971406;stroke-miterlimit:10;stroke-dasharray:0, 11.8768551;stroke-dashoffset:0" /><g
       id="g486"
       style="fill:#2affec;fill-opacity:1"
       transform="matrix(1.038572,0,0,1.122486,-7.3388973,11.817069)"><g
         id="g484"
         style="fill:#2affec;fill-opacity:1"><path
           d="m 35,27.2 c 0,-2.5 0,-5 0,-7.5 -0.5,0.5 -1.1,0.9 -1.6,1.4 19.3,0 38.6,0 57.9,0 -0.5,-0.5 -0.9,-1.1 -1.4,-1.6 0,14.7 0,29.3 0,44 0.5,-0.5 1.1,-0.9 1.6,-1.4 -11.7,0 -23.5,0 -35.2,0 -1.9,0 -2.1,3 -0.2,3 11.7,0 23.5,0 35.2,0 0.8,0 1.6,-0.5 1.6,-1.4 0,-14.7 0,-29.3 0,-44 0,-0.8 -0.5,-1.6 -1.4,-1.6 -19.3,0 -38.6,0 -57.9,0 -0.8,0 -1.6,0.5 -1.6,1.4 0,2.5 0,5 0,7.5 0,1.9 3,2.1 3,0.2 z"
           id="path482"
           inkscape:connector-curvature="0"
           style="fill:#2affec;fill-opacity:1" /></g></g><polygon
       class="st10"
       points="65.7,40.2 67.7,26.7 73.8,26.7 71.5,36.6 79,36.6 75.6,48.3 71.8,48.3 73.7,40.2 "
       id="polygon488"
       style="fill:#2affec;fill-opacity:1;stroke:#000000;stroke-width:0.5;stroke-miterlimit:10;stroke-dasharray:0, 5.5;stroke-dashoffset:0"
       transform="matrix(1.038572,0,0,1.122486,-7.3388973,11.817069)" /><polygon
       points="68.6,48.1 79.3,48.1 73.9,57.4 "
       id="polygon490"
       style="fill:#2affec;fill-opacity:1"
       transform="matrix(1.038572,0,0,1.122486,-7.3388973,11.817069)" /></g></svg>