<?xml version="1.0" encoding="UTF-8" standalone="no"?>
<svg
   xmlns:dc="http://purl.org/dc/elements/1.1/"
   xmlns:cc="http://creativecommons.org/ns#"
   xmlns:rdf="http://www.w3.org/1999/02/22-rdf-syntax-ns#"
   xmlns:svg="http://www.w3.org/2000/svg"
   xmlns="http://www.w3.org/2000/svg"
   xmlns:sodipodi="http://sodipodi.sourceforge.net/DTD/sodipodi-0.dtd"
   xmlns:inkscape="http://www.inkscape.org/namespaces/inkscape"
   version="1.1"
   x="0px"
   y="0px"
   viewBox="0 0 100 100"
   xml:space="preserve"
   id="svg30"
   sodipodi:docname="develop2.svg"
   width="100"
   height="100"
   inkscape:version="0.92.2 (30a58d1, 2017-08-07)"><metadata
     id="metadata36"><rdf:RDF><cc:Work
         rdf:about=""><dc:format>image/svg+xml</dc:format><dc:type
           rdf:resource="http://purl.org/dc/dcmitype/StillImage" /><dc:title></dc:title></cc:Work></rdf:RDF></metadata><defs
     id="defs34" /><sodipodi:namedview
     pagecolor="#ffffff"
     bordercolor="##7AC9436"
     borderopacity="1"
     objecttolerance="10"
     gridtolerance="10"
     guidetolerance="10"
     inkscape:pageopacity="0"
     inkscape:pageshadow="2"
     inkscape:window-width="1855"
     inkscape:window-height="1056"
     id="namedview32"
     showgrid="false"
     inkscape:snap-page="true"
     inkscape:measure-start="0,0"
     inkscape:measure-end="0,0"
     inkscape:zoom="19.503773"
     inkscape:cx="39.925562"
     inkscape:cy="55.651084"
     inkscape:window-x="65"
     inkscape:window-y="24"
     inkscape:window-maximized="1"
     inkscape:current-layer="svg30" /><g
     id="g14"
     transform="translate(0.18726349,0.09330195)"
     style="fill:#4d4d4d"><g
       id="g4"
       style="fill:#4d4d4d"><path
         d="m 41.4,52.5 c -0.4,0 -0.8,-0.1 -1.1,-0.4 l -10.5,-10.6 11,-11 c 0.6,-0.6 1.5,-0.6 2.1,0 0.6,0.6 0.6,1.5 0,2.1 l -8.9,8.9 8.4,8.4 c 0.6,0.6 0.6,1.5 0,2.1 -0.3,0.4 -0.6,0.5 -1,0.5 z"
         id="path2"
         inkscape:connector-curvature="0"
         style="fill:#4d4d4d" /></g><g
       id="g8"
       style="fill:#4d4d4d"><path
         d="m 58.2,52.5 c -0.4,0 -0.8,-0.1 -1.1,-0.4 -0.6,-0.6 -0.6,-1.5 0,-2.1 L 66,41.1 57.6,32.7 c -0.6,-0.6 -0.6,-1.5 0,-2.1 0.6,-0.6 1.5,-0.6 2.1,0 l 10.6,10.6 -11,11 c -0.3,0.2 -0.7,0.3 -1.1,0.3 z"
         id="path6"
         inkscape:connector-curvature="0"
         style="fill:#4d4d4d" /></g><g
       id="g12"
       style="fill:#4d4d4d"><path
         d="m 46.7,52.5 c -0.2,0 -0.3,0 -0.5,-0.1 -0.8,-0.3 -1.2,-1.1 -0.9,-1.9 l 6.5,-19.4 c 0.3,-0.8 1.1,-1.2 1.9,-0.9 0.8,0.3 1.2,1.1 0.9,1.9 l -6.5,19.4 c -0.2,0.6 -0.7,1 -1.4,1 z"
         id="path10"
         inkscape:connector-curvature="0"
         style="fill:#4d4d4d" /></g></g><g
     id="g24"
     transform="translate(0.18726344,0.84235551)"
     style="fill:#4d4d4d"><g
       id="g18"
       style="fill:#4d4d4d"><path
         d="M 86.4,8.9 H 13.6 c -3.7,0 -6.8,3 -6.8,6.8 v 49.6 c 0,3.7 3,6.8 6.8,6.8 h 24 v 3.6 c 0,4.4 -2.3,8.4 -6.1,10.6 -1,0.6 -1.5,1.8 -1.2,2.9 0.3,1.1 1.4,1.9 2.5,1.9 h 33.9 c 1.1,0 2.2,-0.7 2.5,-1.9 C 69.5,88.1 69,86.9 68,86.3 64.3,84.1 61.9,80.1 61.9,75.7 v -3.6 h 24.7 c 3.7,0 6.8,-3 6.8,-6.8 V 15.7 C 93.2,11.9 90.2,8.9 86.4,8.9 Z M 10,20.7 H 90 V 60.5 H 10 Z M 13.6,12 h 72.8 c 2,0 3.6,1.7 3.6,3.6 v 1.9 H 10 v -1.9 c 0,-2 1.6,-3.6 3.6,-3.6 z M 65,88 H 34.6 c 3.8,-2.9 6.1,-7.5 6.1,-12.4 V 72 h 18.1 v 3.6 c 0,4.9 2.3,9.5 6.2,12.4 z M 86.4,68.9 H 13.6 c -2,0 -3.6,-1.7 -3.6,-3.6 v -1.7 h 80 v 1.7 c 0,2 -1.6,3.6 -3.6,3.6 z"
         id="path16"
         inkscape:connector-curvature="0"
         style="fill:#4d4d4d" /></g><g
       id="g22"
       style="fill:#4d4d4d"><circle
         cx="50"
         cy="14.8"
         r="1.4"
         id="circle20"
         style="fill:#4d4d4d" /></g></g></svg>