<?xml version="1.0" encoding="UTF-8" standalone="no"?>
<svg
   xmlns:dc="http://purl.org/dc/elements/1.1/"
   xmlns:cc="http://creativecommons.org/ns#"
   xmlns:rdf="http://www.w3.org/1999/02/22-rdf-syntax-ns#"
   xmlns:svg="http://www.w3.org/2000/svg"
   xmlns="http://www.w3.org/2000/svg"
   xmlns:sodipodi="http://sodipodi.sourceforge.net/DTD/sodipodi-0.dtd"
   xmlns:inkscape="http://www.inkscape.org/namespaces/inkscape"
   version="1.1"
   x="0px"
   y="0px"
   viewBox="0 0 100 100"
   enable-background="new 0 0 65 65"
   xml:space="preserve"
   id="svg44"
   sodipodi:docname="individual2.svg"
   width="100"
   height="100"
   inkscape:version="0.92.2 (30a58d1, 2017-08-07)"><metadata
     id="metadata50"><rdf:RDF><cc:Work
         rdf:about=""><dc:format>image/svg+xml</dc:format><dc:type
           rdf:resource="http://purl.org/dc/dcmitype/StillImage" /><dc:title></dc:title></cc:Work></rdf:RDF></metadata><defs
     id="defs48" /><sodipodi:namedview
     pagecolor="#ffffff"
     bordercolor="#666666"
     borderopacity="1"
     objecttolerance="10"
     gridtolerance="10"
     guidetolerance="10"
     inkscape:pageopacity="0"
     inkscape:pageshadow="2"
     inkscape:window-width="1855"
     inkscape:window-height="1056"
     id="namedview46"
     showgrid="false"
     inkscape:zoom="10.608654"
     inkscape:cx="16.852397"
     inkscape:cy="40.625"
     inkscape:window-x="65"
     inkscape:window-y="24"
     inkscape:window-maximized="1"
     inkscape:current-layer="svg44" /><g
     id="g38"
     transform="matrix(1.4677998,0,0,1.7650659,1.8617382,-8.2568267)"
     style="fill:#4d4d4d"><rect
       x="56.200001"
       y="42.900002"
       width="4.5"
       height="1.5"
       id="rect2"
       style="fill:#4d4d4d" /><rect
       x="50.400002"
       y="42.900002"
       width="1.5"
       height="1.5"
       id="rect4"
       style="fill:#4d4d4d" /><rect
       x="53.599998"
       y="42.900002"
       width="1.2"
       height="1.5"
       id="rect6"
       style="fill:#4d4d4d" /><rect
       x="45.200001"
       y="42.900002"
       width="3.7"
       height="1.5"
       id="rect8"
       style="fill:#4d4d4d" /><rect
       x="56.200001"
       y="48.700001"
       width="4.5"
       height="1.5"
       id="rect10"
       style="fill:#4d4d4d" /><rect
       x="53.299999"
       y="48.700001"
       width="1.5"
       height="1.5"
       id="rect12"
       style="fill:#4d4d4d" /><rect
       x="45.200001"
       y="48.700001"
       width="6.5999999"
       height="1.5"
       id="rect14"
       style="fill:#4d4d4d" /><path
       d="m 31.3,14.8 c -0.4,-1.3 -1.2,-2 -1.9,-2.3 0.9,-1.3 0.7,-2.2 0.7,-2.4 L 29.8,9.2 29,9.8 c -0.6,0.4 -1.3,0.7 -1.9,0.7 -0.4,0 -0.6,-0.1 -0.7,-0.1 -2,-0.9 -6.3,-1.1 -6.5,-1.1 -4.3,0 -5.8,2.1 -6.2,3.2 -3.8,0.5 -3.6,4.3 -3.5,6.1 0,0.3 0,0.6 0,0.8 0,0.3 0,0.6 0,0.9 -0.6,0.1 -1.5,0.5 -1.5,2 0,1.8 1.8,3.5 2.5,4.2 0.1,2 1,3.9 2.2,5.4 -1.3,0 -3.1,0.3 -4.1,1.5 -0.8,1 -1.1,2.3 -0.7,4.1 -5.3,1.6 -8.9,6.5 -8.9,12.1 v 2.6 H 6 V 56 H 65.2 V 14.8 Z m 32.5,1.5 V 25 H 31.6 c 0.7,-0.8 1.4,-1.9 1.4,-3.1 0,-1.8 -1.2,-2 -1.7,-2.1 l 0.3,-2.5 c 0,-0.4 0,-0.8 0,-1.1 H 63.8 Z M 14.2,13.7 h 0.6 l 0.1,-0.6 c 0,-0.1 0.6,-2.5 4.9,-2.5 1.2,0.1 4.5,0.4 5.9,1 0.1,0 0.6,0.3 1.3,0.3 0.4,0 0.7,0 1.1,-0.1 -0.1,0.2 -0.3,0.4 -0.5,0.6 l -1.1,1.1 1.6,0.1 c 0.1,0 2.3,0.2 2.1,3.7 l -0.3,2.6 -1.1,0.4 c -0.3,-0.3 -0.7,-0.5 -1,-0.6 -0.5,-0.1 -1.1,-0.1 -1.9,-0.1 -1.3,0 -2.5,0.1 -2.6,0.1 -1,0.1 -1.7,0.5 -2.1,1.2 0,0 0,0 0,0 h -0.7 c 0,0 0,0 0,0 -0.3,-0.6 -1,-1 -2.1,-1.2 -0.1,0 -1.3,-0.1 -2.6,-0.1 -0.8,0 -1.4,0 -1.9,0.1 -0.3,0.1 -0.7,0.2 -1,0.6 l -1.3,-0.5 c 0,-0.2 0,-0.4 0,-0.6 0,-0.2 0,-0.5 0,-0.9 -0.1,-2.5 0,-4.5 2.6,-4.6 z m 13.6,8.6 -0.1,0.5 c -0.2,1.3 -0.3,1.4 -0.8,1.6 0,0 -0.7,0.2 -1.6,0.2 -0.9,0 -1.5,-0.2 -1.9,-0.5 -0.1,-0.2 -0.6,-1 -1,-2 0,0 -0.1,-0.3 0,-0.4 0,-0.1 0.2,-0.3 0.9,-0.4 0,0 1.2,-0.1 2.4,-0.1 0.7,0 1.2,0 1.6,0.1 0.3,0 0.7,0.2 0.5,1 z m -8.7,-0.2 c -0.3,0.9 -0.8,1.7 -0.9,1.9 -0.3,0.3 -1,0.5 -1.9,0.5 -0.8,0 -1.5,-0.1 -1.5,-0.1 0,0 0,0 0,0 -0.6,-0.2 -0.6,-0.3 -0.8,-1.6 l -0.1,-0.5 c -0.1,-0.8 0.2,-1 0.4,-1 0.4,-0.1 0.9,-0.1 1.6,-0.1 1.2,0 2.4,0.1 2.4,0.1 0.7,0.1 0.9,0.3 0.9,0.4 0,0.1 -0.1,0.3 -0.1,0.4 z m -6.5,3.5 -0.3,-0.2 c -0.6,-0.4 -2.2,-2 -2.2,-3.2 0,-0.6 0.2,-0.6 0.3,-0.6 0.3,0 0.6,-0.1 0.8,-0.3 l 1,0.4 c 0,0.3 0,0.5 0,0.8 l 0.1,0.5 c 0.2,1.4 0.4,2.3 2,2.8 0,0 0.9,0.2 1.9,0.2 1.4,0 2.4,-0.3 3,-1 l 0.1,-0.1 c 0,0 0.7,-1 1.1,-2.2 0,0 0.1,-0.1 0.1,-0.3 H 21 c 0,0.1 0.1,0.2 0.1,0.2 0.5,1.2 1.1,2.2 1.1,2.3 l 0.1,0.1 c 0.6,0.7 1.6,1 3,1 1,0 1.8,-0.2 1.9,-0.2 1.5,-0.5 1.7,-1.4 1.9,-2.8 l 0.1,-0.5 c 0.1,-0.3 0.1,-0.6 0,-0.8 l 1,-0.4 c 0.1,0.1 0.3,0.1 0.5,0.1 h 0.2 c 0.1,0 0.1,0 0.2,0 0.1,0 0.3,0 0.3,0.6 0,1.2 -1.6,2.7 -2.2,3.2 L 29,25.4 v 0.4 c 0,2.4 -1.3,4.6 -3,6.1 H 25.8 V 32 c -1.6,1.4 -3.5,2.2 -5,2.2 -1.7,0 -3.7,-0.9 -5.2,-2.3 v 0 0 c -1.7,-1.5 -2.9,-3.7 -2.9,-6 z m 13,16.3 c -0.3,-0.7 -0.8,-1.3 -1.5,-1.7 0.5,-0.3 1,-0.7 1.4,-1.2 1.6,-1.9 1.8,-4.6 1.8,-5.9 1.1,-0.1 2.9,0 3.7,1 0.6,0.7 0.7,1.9 0.2,3.3 0,0.3 -1.4,3.3 -5.6,4.5 z m 0.3,4.5 c 0,0.4 -0.3,0.7 -0.7,0.7 -0.4,0 -0.7,-0.3 -0.7,-0.7 0,-0.4 0.3,-0.7 0.7,-0.7 0.3,0 0.7,0.3 0.7,0.7 z M 20.6,39.7 C 19.1,39.6 17.8,39 17,38 c -1.1,-1.3 -1.4,-3.1 -1.5,-4.3 1.7,1.2 3.6,1.9 5.3,1.9 1.6,0 3.4,-0.7 5.1,-1.9 -0.1,1.2 -0.4,2.9 -1.5,4.2 -0.8,1 -2.1,1.5 -3.6,1.7 H 20.6 Z M 10.3,34.2 c 0.8,-0.9 2.6,-1.1 3.7,-1 0,1.3 0.2,3.9 1.8,5.8 0.5,0.6 1.1,1.1 1.8,1.4 -0.6,0.4 -1,1 -1.2,1.6 -4.7,-1.1 -6.2,-4.4 -6.3,-4.5 -0.5,-1.4 -0.4,-2.6 0.2,-3.3 z m 7.4,13.5 c 0,0.4 -0.3,0.7 -0.7,0.7 -0.4,0 -0.7,-0.3 -0.7,-0.7 0,-0.4 0.3,-0.7 0.7,-0.7 0.4,0 0.7,0.3 0.7,0.7 z M 1.3,49.6 c 0,-4.9 3.2,-9.3 7.8,-10.9 0.7,1.2 2.8,3.9 7.1,4.9 v 2.1 c -0.9,0.3 -1.5,1.1 -1.5,2.1 0,1.2 1,2.2 2.2,2.2 1.2,0 2.2,-1 2.2,-2.2 0,-1 -0.6,-1.8 -1.5,-2.1 v -2.3 c 0,-1.1 0.9,-2 2,-2 h 0.8 c 0.1,0 0.1,0 0.2,0 v 0 h 0.1 v 0 c 0.1,0 0.1,0 0.2,0 h 1.4 c 1.1,0 2,0.9 2,2 v 1 c -0.9,0.3 -1.5,1.1 -1.5,2.1 0,1.2 1,2.2 2.2,2.2 1.2,0 2.2,-1 2.2,-2.2 0,-1 -0.6,-1.8 -1.5,-2.1 v -0.9 c 3.9,-1.1 5.8,-3.6 6.5,-4.7 4.6,1.6 7.8,6 7.8,10.9 v 1.1 H 1.3 Z m 6.2,4.9 v -2.3 h 34.1 v -2.6 c 0,-5.5 -3.6,-10.5 -8.7,-12.3 0.4,-1.7 0.2,-3.1 -0.7,-4.1 -1,-1.2 -2.7,-1.5 -4,-1.5 1.2,-1.5 2.1,-3.3 2.3,-5.2 H 63.8 V 54.4 H 7.5 Z"
       id="path16"
       inkscape:connector-curvature="0"
       style="fill:#4d4d4d" /><path
       d="m 46.2,23 c 1.3,0 2.4,-1.1 2.4,-2.4 0,-1.3 -1.1,-2.4 -2.4,-2.4 -1.3,0 -2.4,1.1 -2.4,2.4 0,1.3 1.1,2.4 2.4,2.4 z m 0,-3.3 c 0.5,0 0.9,0.4 0.9,0.9 0,0.5 -0.4,0.9 -0.9,0.9 -0.5,0 -0.9,-0.4 -0.9,-0.9 0,-0.5 0.4,-0.9 0.9,-0.9 z"
       id="path18"
       inkscape:connector-curvature="0"
       style="fill:#4d4d4d" /><path
       d="m 52.8,23 c 1.3,0 2.4,-1.1 2.4,-2.4 0,-1.3 -1.1,-2.4 -2.4,-2.4 -1.3,0 -2.4,1.1 -2.4,2.4 0,1.3 1.1,2.4 2.4,2.4 z m 0,-3.3 c 0.5,0 0.9,0.4 0.9,0.9 0,0.5 -0.4,0.9 -0.9,0.9 -0.5,0 -0.9,-0.4 -0.9,-0.9 0,-0.5 0.4,-0.9 0.9,-0.9 z"
       id="path20"
       inkscape:connector-curvature="0"
       style="fill:#4d4d4d" /><path
       d="m 59.3,23 c 1.3,0 2.4,-1.1 2.4,-2.4 0,-1.3 -1.1,-2.4 -2.4,-2.4 -1.3,0 -2.4,1.1 -2.4,2.4 0,1.3 1.1,2.4 2.4,2.4 z m 0,-3.3 c 0.5,0 0.9,0.4 0.9,0.9 0,0.5 -0.4,0.9 -0.9,0.9 -0.5,0 -0.9,-0.4 -0.9,-0.9 0,-0.5 0.4,-0.9 0.9,-0.9 z"
       id="path22"
       inkscape:connector-curvature="0"
       style="fill:#4d4d4d" /><rect
       x="55.400002"
       y="31.299999"
       width="5.1999998"
       height="1.5"
       id="rect24"
       style="fill:#4d4d4d" /><rect
       x="51.200001"
       y="31.299999"
       width="2.5999999"
       height="1.5"
       id="rect26"
       style="fill:#4d4d4d" /><rect
       x="33.299999"
       y="31.299999"
       width="16.200001"
       height="1.5"
       id="rect28"
       style="fill:#4d4d4d" /><rect
       x="46.599998"
       y="37.099998"
       width="5.1999998"
       height="1.5"
       id="rect30"
       style="fill:#4d4d4d" /><rect
       x="53.5"
       y="37.099998"
       width="7.1999998"
       height="1.5"
       id="rect32"
       style="fill:#4d4d4d" /><rect
       x="43.400002"
       y="37.099998"
       width="1.5"
       height="1.5"
       id="rect34"
       style="fill:#4d4d4d" /><rect
       x="40.200001"
       y="37.099998"
       width="1.5"
       height="1.5"
       id="rect36"
       style="fill:#4d4d4d" /></g></svg>