<?xml version="1.0" encoding="UTF-8" standalone="no"?>
<svg
   xmlns:dc="http://purl.org/dc/elements/1.1/"
   xmlns:cc="http://creativecommons.org/ns#"
   xmlns:rdf="http://www.w3.org/1999/02/22-rdf-syntax-ns#"
   xmlns:svg="http://www.w3.org/2000/svg"
   xmlns="http://www.w3.org/2000/svg"
   xmlns:sodipodi="http://sodipodi.sourceforge.net/DTD/sodipodi-0.dtd"
   xmlns:inkscape="http://www.inkscape.org/namespaces/inkscape"
   version="1.1"
   x="0px"
   y="0px"
   viewBox="0 0 100 100"
   enable-background="new 0 0 100 100"
   xml:space="preserve"
   id="svg50"
   sodipodi:docname="manage.svg"
   width="100"
   height="100"
   inkscape:version="0.92.2 (30a58d1, 2017-08-07)"><metadata
     id="metadata56"><rdf:RDF><cc:Work
         rdf:about=""><dc:format>image/svg+xml</dc:format><dc:type
           rdf:resource="http://purl.org/dc/dcmitype/StillImage" /><dc:title /></cc:Work></rdf:RDF></metadata><defs
     id="defs54" /><sodipodi:namedview
     pagecolor="#ffffff"
     bordercolor="#666666"
     borderopacity="1"
     objecttolerance="10"
     gridtolerance="10"
     guidetolerance="10"
     inkscape:pageopacity="0"
     inkscape:pageshadow="2"
     inkscape:window-width="1855"
     inkscape:window-height="1056"
     id="namedview52"
     showgrid="false"
     inkscape:zoom="1.888"
     inkscape:cx="-37.923729"
     inkscape:cy="62.5"
     inkscape:window-x="65"
     inkscape:window-y="24"
     inkscape:window-maximized="1"
     inkscape:current-layer="svg50" /><g
     id="g44"
     transform="translate(0,-0.1059322)"
     style="fill:#9955ff"><path
       d="M 86,14.917 V 9.961 c 0,-2.068 -1.683,-3.75 -3.75,-3.75 -2.067,0 -3.75,1.682 -3.75,3.75 v 4.956 H 73 V 9.961 c 0,-2.068 -1.683,-3.75 -3.75,-3.75 -2.067,0 -3.75,1.682 -3.75,3.75 v 4.956 H 60 V 9.961 c 0,-2.068 -1.683,-3.75 -3.75,-3.75 -2.067,0 -3.75,1.682 -3.75,3.75 v 4.956 H 47 V 9.961 c 0,-2.068 -1.682,-3.75 -3.75,-3.75 -2.068,0 -3.75,1.682 -3.75,3.75 v 4.956 H 34 V 9.961 c 0,-2.068 -1.682,-3.75 -3.75,-3.75 -2.068,0 -3.75,1.682 -3.75,3.75 v 4.956 H 21 V 9.961 c 0,-2.068 -1.682,-3.75 -3.75,-3.75 -2.068,0 -3.75,1.682 -3.75,3.75 v 4.956 H 7.75 V 93.328 H 92.5 V 14.917 Z M 81,9.961 c 0,-0.689 0.561,-1.25 1.25,-1.25 0.689,0 1.25,0.561 1.25,1.25 v 10.744 c 0,0.689 -0.561,1.25 -1.25,1.25 -0.689,0 -1.25,-0.56 -1.25,-1.249 z m -13,0 c 0,-0.689 0.561,-1.25 1.25,-1.25 0.689,0 1.25,0.561 1.25,1.25 v 10.744 c 0,0.689 -0.561,1.25 -1.25,1.25 -0.689,0 -1.25,-0.56 -1.25,-1.249 z m -13,0 c 0,-0.689 0.561,-1.25 1.25,-1.25 0.689,0 1.25,0.561 1.25,1.25 v 10.744 c 0,0.689 -0.561,1.25 -1.25,1.25 -0.689,0 -1.25,-0.56 -1.25,-1.249 z m -13,0 c 0,-0.689 0.561,-1.25 1.25,-1.25 0.689,0 1.25,0.561 1.25,1.25 v 10.744 c 0,0.689 -0.561,1.25 -1.25,1.25 -0.689,0 -1.25,-0.56 -1.25,-1.249 z m -13,0 c 0,-0.689 0.561,-1.25 1.25,-1.25 0.689,0 1.25,0.561 1.25,1.25 v 10.744 c 0,0.689 -0.561,1.25 -1.25,1.25 -0.689,0 -1.25,-0.56 -1.25,-1.249 z m -13,0 c 0,-0.689 0.561,-1.25 1.25,-1.25 0.689,0 1.25,0.561 1.25,1.25 v 10.744 c 0,0.689 -0.561,1.25 -1.25,1.25 -0.689,0 -1.25,-0.56 -1.25,-1.249 z m -2.5,7.456 v 3.289 c 0,2.068 1.682,3.75 3.75,3.75 2.068,0 3.75,-1.683 3.75,-3.75 v -3.289 h 5.5 v 3.289 c 0,2.068 1.682,3.75 3.75,3.75 2.068,0 3.75,-1.683 3.75,-3.75 v -3.289 h 5.5 v 3.289 c 0,2.068 1.682,3.75 3.75,3.75 2.068,0 3.75,-1.683 3.75,-3.75 v -3.289 h 5.5 v 3.289 c 0,2.068 1.683,3.75 3.75,3.75 2.067,0 3.75,-1.683 3.75,-3.75 v -3.289 h 5.5 v 3.289 c 0,2.068 1.683,3.75 3.75,3.75 2.067,0 3.75,-1.683 3.75,-3.75 v -3.289 h 5.5 v 3.289 c 0,2.068 1.683,3.75 3.75,3.75 2.067,0 3.75,-1.683 3.75,-3.75 v -3.289 h 4 V 28.75 H 10.25 V 17.417 Z M 10.25,90.828 V 31.25 H 90 v 59.578 z"
       id="path2"
       inkscape:connector-curvature="0"
       style="fill:#9955ff" /><path
       d="m 81.165,62.929 4.167,-4.167 -6.479,-6.479 -4.301,4.302 V 50.504 H 65.39 v 6.079 l -4.299,-4.3 -6.479,6.479 4.166,4.166 c -0.021,0.044 -0.041,0.089 -0.061,0.133 H 52.83 v 9.163 h 5.453 c 0.053,0.153 0.109,0.307 0.168,0.458 l -3.84,3.84 6.479,6.48 3.618,-3.618 c 0.226,0.107 0.452,0.207 0.681,0.299 v 5.1 h 9.162 v -5.1 c 0.229,-0.092 0.456,-0.191 0.682,-0.299 l 3.617,3.618 6.48,-6.48 -3.841,-3.84 c 0.06,-0.151 0.115,-0.304 0.169,-0.458 h 5.451 v -9.163 h -5.885 c -0.018,-0.044 -0.038,-0.088 -0.059,-0.132 z m 3.446,6.795 h -4.847 l -0.242,0.937 c -0.158,0.61 -0.374,1.205 -0.643,1.768 l -0.381,0.798 3.298,3.296 -2.945,2.945 -3.173,-3.175 -0.829,0.475 c -0.624,0.356 -1.271,0.641 -1.921,0.845 l -0.876,0.274 v 4.396 H 67.89 v -4.396 l -0.876,-0.274 c -0.65,-0.204 -1.296,-0.488 -1.92,-0.845 l -0.829,-0.475 -3.174,3.175 -2.943,-2.945 3.296,-3.296 -0.379,-0.797 C 60.796,71.866 60.581,71.271 60.422,70.661 L 60.18,69.724 h -4.849 v -4.163 h 5.09 l 0.304,-0.813 c 0.191,-0.512 0.416,-0.996 0.669,-1.439 l 0.473,-0.829 -3.719,-3.718 2.943,-2.943 3.844,3.845 0.798,-0.383 c 0.465,-0.223 0.884,-0.392 1.282,-0.517 l 0.875,-0.275 v -5.484 h 4.162 v 5.483 l 0.874,0.275 c 0.4,0.126 0.809,0.291 1.287,0.519 l 0.797,0.381 3.843,-3.844 2.943,2.943 -3.719,3.718 0.473,0.829 c 0.25,0.439 0.476,0.924 0.67,1.44 l 0.304,0.812 h 5.087 z"
       id="path4"
       inkscape:connector-curvature="0"
       style="fill:#9955ff" /><path
       d="m 69.973,60.396 c -3.996,0 -7.247,3.25 -7.247,7.245 0,3.995 3.251,7.246 7.247,7.246 3.995,0 7.246,-3.251 7.246,-7.246 0,-3.995 -3.251,-7.245 -7.246,-7.245 z m 0,11.992 c -2.617,0 -4.747,-2.129 -4.747,-4.746 0,-2.616 2.13,-4.745 4.747,-4.745 2.617,0 4.746,2.129 4.746,4.745 0,2.617 -2.129,4.746 -4.746,4.746 z"
       id="path6"
       inkscape:connector-curvature="0"
       style="fill:#9955ff" /><path
       d="M 13.5,45.74 H 23.823 V 35.417 H 13.5 Z M 16,37.917 h 5.323 V 43.24 H 16 Z"
       id="path8"
       inkscape:connector-curvature="0"
       style="fill:#9955ff" /><path
       d="M 27.306,45.74 H 37.629 V 35.417 H 27.306 Z m 2.5,-7.823 h 5.323 v 5.323 h -5.323 z"
       id="path10"
       inkscape:connector-curvature="0"
       style="fill:#9955ff" /><path
       d="M 51.434,35.417 H 41.111 V 45.74 h 10.323 z m -2.5,7.823 h -5.323 v -5.323 h 5.323 z"
       id="path12"
       inkscape:connector-curvature="0"
       style="fill:#9955ff" /><path
       d="M 65.239,35.417 H 54.916 V 45.74 h 10.323 z m -2.5,7.823 h -5.323 v -5.323 h 5.323 z"
       id="path14"
       inkscape:connector-curvature="0"
       style="fill:#9955ff" /><path
       d="M 79.045,35.417 H 68.722 V 45.74 h 10.323 z m -2.5,7.823 h -5.323 v -5.323 h 5.323 z"
       id="path16"
       inkscape:connector-curvature="0"
       style="fill:#9955ff" /><path
       d="M 13.5,59.249 H 23.823 V 48.926 H 13.5 Z M 16,51.426 h 5.323 v 5.323 H 16 Z"
       id="path18"
       inkscape:connector-curvature="0"
       style="fill:#9955ff" /><path
       d="M 27.306,59.249 H 37.629 V 48.926 H 27.306 Z m 2.5,-7.823 h 5.323 v 5.323 h -5.323 z"
       id="path20"
       inkscape:connector-curvature="0"
       style="fill:#9955ff" /><path
       d="M 51.434,48.926 H 41.111 v 10.323 h 10.323 z m -2.5,7.823 h -5.323 v -5.323 h 5.323 z"
       id="path22"
       inkscape:connector-curvature="0"
       style="fill:#9955ff" /><path
       d="M 13.5,72.759 H 23.823 V 62.436 H 13.5 Z M 16,64.936 h 5.323 v 5.323 H 16 Z"
       id="path24"
       inkscape:connector-curvature="0"
       style="fill:#9955ff" /><path
       d="M 27.306,72.759 H 37.629 V 62.436 H 27.306 Z m 2.5,-7.823 h 5.323 v 5.323 h -5.323 z"
       id="path26"
       inkscape:connector-curvature="0"
       style="fill:#9955ff" /><path
       d="M 13.5,86.269 H 23.823 V 75.945 H 13.5 Z M 16,78.445 h 5.323 v 5.323 H 16 Z"
       id="path28"
       inkscape:connector-curvature="0"
       style="fill:#9955ff" /><path
       d="M 27.306,86.269 H 37.629 V 75.945 H 27.306 Z m 2.5,-7.824 h 5.323 v 5.323 h -5.323 z"
       id="path30"
       inkscape:connector-curvature="0"
       style="fill:#9955ff" /><path
       d="M 51.434,62.436 H 41.111 v 10.323 h 10.323 z m -2.5,7.823 h -5.323 v -5.323 h 5.323 z"
       id="path32"
       inkscape:connector-curvature="0"
       style="fill:#9955ff" /><rect
       x="42.361"
       y="83.768997"
       width="15.139"
       height="2.5"
       id="rect34"
       style="fill:#9955ff" /><rect
       x="42.361"
       y="79.857002"
       width="11.721"
       height="2.5"
       id="rect36"
       style="fill:#9955ff" /><rect
       x="42.361"
       y="75.857002"
       width="7.823"
       height="2.5"
       id="rect38"
       style="fill:#9955ff" /><rect
       x="83.5"
       y="36.667"
       width="2.5"
       height="17.421"
       id="rect40"
       style="fill:#9955ff" /><rect
       x="56.166"
       y="48.925999"
       width="6.5840001"
       height="2.5"
       id="rect42"
       style="fill:#9955ff" /></g></svg>