<?xml version="1.0" encoding="UTF-8" standalone="no"?>
<svg
   xmlns:dc="http://purl.org/dc/elements/1.1/"
   xmlns:cc="http://creativecommons.org/ns#"
   xmlns:rdf="http://www.w3.org/1999/02/22-rdf-syntax-ns#"
   xmlns:svg="http://www.w3.org/2000/svg"
   xmlns="http://www.w3.org/2000/svg"
   xmlns:sodipodi="http://sodipodi.sourceforge.net/DTD/sodipodi-0.dtd"
   xmlns:inkscape="http://www.inkscape.org/namespaces/inkscape"
   version="1.1"
   x="0px"
   y="0px"
   viewBox="0 0 100 100"
   id="svg10"
   sodipodi:docname="team2.svg"
   width="100"
   height="100"
   inkscape:version="0.92.2 (30a58d1, 2017-08-07)">
  <metadata
     id="metadata16">
    <rdf:RDF>
      <cc:Work
         rdf:about="">
        <dc:format>image/svg+xml</dc:format>
        <dc:type
           rdf:resource="http://purl.org/dc/dcmitype/StillImage" />
        <dc:title></dc:title>
      </cc:Work>
    </rdf:RDF>
  </metadata>
  <defs
     id="defs14" />
  <sodipodi:namedview
     pagecolor="#ffffff"
     bordercolor="#666666"
     borderopacity="1"
     objecttolerance="10"
     gridtolerance="10"
     guidetolerance="10"
     inkscape:pageopacity="0"
     inkscape:pageshadow="2"
     inkscape:window-width="1855"
     inkscape:window-height="1056"
     id="namedview12"
     showgrid="false"
     inkscape:zoom="6.895625"
     inkscape:cx="25.926765"
     inkscape:cy="62.5"
     inkscape:window-x="65"
     inkscape:window-y="24"
     inkscape:window-maximized="1"
     inkscape:current-layer="svg10" />
  <g
     transform="matrix(1,0,0,1.1397391,-0.52966102,-1092.0077)"
     id="g4"
     style="fill:#4d4d4d">
    <path
       style="color:#000000;text-indent:0;text-transform:none;direction:ltr;baseline-shift:baseline;display:inline;overflow:visible;visibility:visible;fill:#4d4d4d;fill-opacity:1;fill-rule:evenodd;stroke:none;enable-background:accumulate"
       d="m 49.984572,972.03932 c -8.283791,0 -15.062598,6.68326 -15.062598,14.96875 0,3.17455 0.978697,6.13506 2.687598,8.56247 -1.349114,0.7467 -2.612693,1.6329 -3.781311,2.6563 -0.450815,-0.3388 -0.922004,-0.6156 -1.406303,-0.9063 1.063807,-1.7009 1.687606,-3.69882 1.687606,-5.84372 0,-6.19918 -5.100696,-11.21875 -11.281287,-11.21875 -6.180626,0 -11.281322,5.01956 -11.281322,11.21875 0,2.14491 0.623799,4.14282 1.687606,5.84372 -4.2690825,2.6023 -7.4376135,7.23366 -7.4376135,13.46876 v 6.125 c 0.01502,0.8981 0.743811,1.4703 1.250008,1.9062 7.5706995,5.3175 13.2222035,6.1952 19.9376205,5 0.01,0.011 0.02098,0.021 0.031,0.031 19.22159,15.3581 37.805386,7.5781 46.031173,-0.031 6.683492,1.1636 13.468712,-0.5614 19.968804,-5.0625 0.97232,-0.63 1.12851,-1.0833 1.1875,-2.1562 v -5.8125 c 0,-6.2607 -3.16229,-10.91126 -7.437505,-13.49996 1.055126,-1.6961 1.6875,-3.67707 1.6875,-5.81252 0,-6.19918 -5.10059,-11.21875 -11.281287,-11.21875 -6.18059,0 -11.25,5.01957 -11.25,11.21875 0,2.13241 0.603993,4.11802 1.656284,5.81252 -0.476079,0.2819 -0.955488,0.5732 -1.406303,0.9062 -1.162666,-1.0129 -2.442367,-1.8861 -3.78117,-2.625 1.711878,-2.42741 2.71878,-5.38791 2.71878,-8.56247 4e-6,-8.2855 -6.807576,-14.96875 -15.124993,-14.96875 z m 0,4 c 6.191787,0 11.124992,4.85666 11.124992,10.96875 -0.381614,6.33121 -5.141799,10.91087 -11.124992,10.99997 -6.139311,0 -11.062593,-4.93319 -11.062593,-10.99997 0,-6.1121 4.916089,-10.96875 11.062593,-10.96875 z m -27.156295,8.21875 c 4.047272,0 7.281284,3.19014 7.281284,7.21875 0,3.98082 -3.234012,7.15622 -7.281284,7.15622 -4.085397,-0.2489 -7.215696,-2.7707 -7.281318,-7.15622 0,-4.0286 3.234011,-7.21875 7.281318,-7.21875 z m 54.3437,0 c 4.047378,0 7.281283,3.19014 7.281283,7.21875 0,3.98082 -3.233904,7.15622 -7.281283,7.15622 -4.245909,-0.094 -7.189299,-3.0719 -7.250032,-7.15622 0,-4.02862 3.202725,-7.21875 7.250032,-7.21875 z m -36.718724,14.31247 c 2.607307,2.13066 5.912823,3.43746 9.531319,3.43746 3.626575,0 6.982476,-1.2824 9.593681,-3.40616 5.588893,2.65506 9.656326,7.69836 9.656326,15.68746 v 7.5937 c -12.971303,8.8455 -25.34981,8.86 -38.468798,-0.062 v -7.5312 c 0,-8.0198 4.06637,-13.0514 9.687472,-15.71876 z m -10.781291,1.74996 c 0.49011,0.253 0.931996,0.5675 1.375016,0.875 -2.620524,3.4235 -4.281201,7.8121 -4.281201,13.0938 v 5.5 c -5.642397,1.1761 -11.157023,-0.08 -16.9688255,-3.9375 v -5.0625 c 0,-5.3198 2.5789955,-8.5972 6.2188225,-10.4375 1.898007,1.4299 4.265184,2.2812 6.812503,2.2812 2.562803,0 4.939902,-0.8668 6.843685,-2.3125 z m 40.687617,0 c 1.902473,1.4423 4.252996,2.3125 6.812398,2.3125 2.550472,0 4.913291,-0.8793 6.812574,-2.3125 3.630012,1.8255 6.218721,5.1285 6.218721,10.4688 v 5.0312 c -5.822897,3.8883 -11.366012,5.1447 -16.968724,4 v -5.5312 c 0,-5.2892 -1.646894,-9.6971 -4.281272,-13.125 0.445075,-0.3028 0.918284,-0.5928 1.406303,-0.8438 z"
       marker="none"
       visibility="visible"
       display="inline"
       overflow="visible"
       id="path2"
       inkscape:connector-curvature="0" />
  </g>
</svg>
