<?xml version="1.0" encoding="UTF-8" standalone="no"?>
<!-- Generator: Adobe Illustrator 19.0.0, SVG Export Plug-In . SVG Version: 6.00 Build 0)  -->

<svg
   xmlns:dc="http://purl.org/dc/elements/1.1/"
   xmlns:cc="http://creativecommons.org/ns#"
   xmlns:rdf="http://www.w3.org/1999/02/22-rdf-syntax-ns#"
   xmlns:svg="http://www.w3.org/2000/svg"
   xmlns="http://www.w3.org/2000/svg"
   xmlns:sodipodi="http://sodipodi.sourceforge.net/DTD/sodipodi-0.dtd"
   xmlns:inkscape="http://www.inkscape.org/namespaces/inkscape"
   version="1.1"
   id="Capa_1"
   x="0px"
   y="0px"
   viewBox="0 0 511.318 511.318"
   style="enable-background:new 0 0 511.318 511.318;"
   xml:space="preserve"
   sodipodi:docname="tool-box-color.svg"
   inkscape:version="0.92.2 (30a58d1, 2017-08-07)"><metadata
     id="metadata739"><rdf:RDF><cc:Work
         rdf:about=""><dc:format>image/svg+xml</dc:format><dc:type
           rdf:resource="http://purl.org/dc/dcmitype/StillImage" /><dc:title /></cc:Work></rdf:RDF></metadata><defs
     id="defs737" /><sodipodi:namedview
     pagecolor="#ffffff"
     bordercolor="#666666"
     borderopacity="1"
     objecttolerance="10"
     gridtolerance="10"
     guidetolerance="10"
     inkscape:pageopacity="0"
     inkscape:pageshadow="2"
     inkscape:window-width="1855"
     inkscape:window-height="1056"
     id="namedview735"
     showgrid="false"
     inkscape:zoom="22.487225"
     inkscape:cx="221.31554"
     inkscape:cy="255.659"
     inkscape:window-x="65"
     inkscape:window-y="24"
     inkscape:window-maximized="1"
     inkscape:current-layer="Capa_1" /><g
     id="g6"
     style="fill:#9955ff;fill-opacity:1"><g
       id="g4"
       style="fill:#9955ff;fill-opacity:1"><path
         d="M419.439,223.707H147.802c-2.208,0-3.995,1.787-3.995,3.995v39.943c0,2.215,1.787,3.994,3.995,3.994h271.637    c2.208,0,3.995-1.779,3.995-3.994v-39.943C423.434,225.494,421.647,223.707,419.439,223.707z M415.445,263.651H151.797v-31.955    h263.648V263.651z"
         id="path2"
         style="fill:#9955ff;fill-opacity:1" /></g></g><g
     id="g12"
     style="fill:#9955ff;fill-opacity:1"><g
       id="g10"
       style="fill:#9955ff;fill-opacity:1"><path
         d="M232.096,319.574c-11.016,0-19.973,7.178-19.973,15.979c0,8.817,8.957,15.979,19.973,15.979s19.973-7.162,19.974-15.979    C252.07,326.752,243.113,319.574,232.096,319.574z M232.096,343.543c-6.499,0-11.983-3.652-11.983-7.99    c0-4.322,5.484-7.988,11.983-7.988c6.499,0,11.984,3.666,11.984,7.988C244.08,339.891,238.596,343.543,232.096,343.543z"
         id="path8"
         style="fill:#9955ff;fill-opacity:1" /></g></g><g
     id="g18"
     style="fill:#9955ff;fill-opacity:1"><g
       id="g16"
       style="fill:#9955ff;fill-opacity:1"><path
         d="M88.529,331.56h-0.085c-2.2,0-3.948,1.795-3.948,3.994c0,2.217,1.826,3.996,4.034,3.996c2.2,0,3.994-1.78,3.994-3.996    C92.524,333.355,90.729,331.56,88.529,331.56z"
         id="path14"
         style="fill:#9955ff;fill-opacity:1" /></g></g><g
     id="g24"
     style="fill:#9955ff;fill-opacity:1"><g
       id="g22"
       style="fill:#9955ff;fill-opacity:1"><path
         d="M136.466,331.56h-0.086c-2.2,0-3.948,1.795-3.948,3.994c0,2.217,1.826,3.996,4.034,3.996c2.2,0,3.994-1.78,3.995-3.996    C140.461,333.355,138.666,331.56,136.466,331.56z"
         id="path20"
         style="fill:#9955ff;fill-opacity:1" /></g></g><g
     id="g30"
     style="fill:#9955ff;fill-opacity:1"><g
       id="g28"
       style="fill:#9955ff;fill-opacity:1"><path
         d="M184.401,331.56h-0.085c-2.2,0-3.948,1.795-3.948,3.994c0,2.217,1.826,3.996,4.034,3.996c2.2,0,3.994-1.78,3.994-3.996    C188.396,333.355,186.601,331.56,184.401,331.56z"
         id="path26"
         style="fill:#9955ff;fill-opacity:1" /></g></g><g
     id="g36"
     style="fill:#9955ff;fill-opacity:1"><g
       id="g34"
       style="fill:#9955ff;fill-opacity:1"><path
         d="M232.338,331.56h-0.086c-2.2,0-3.948,1.795-3.948,3.994c0,2.217,1.826,3.996,4.034,3.996c2.2,0,3.994-1.78,3.995-3.996    C236.333,333.355,234.538,331.56,232.338,331.56z"
         id="path32"
         style="fill:#9955ff;fill-opacity:1" /></g></g><g
     id="g42"
     style="fill:#9955ff;fill-opacity:1"><g
       id="g40"
       style="fill:#9955ff;fill-opacity:1"><path
         d="M280.273,331.56h-0.086c-2.199,0-3.947,1.795-3.947,3.994c0,2.217,1.826,3.996,4.033,3.996    c2.201,0,3.995-1.78,3.995-3.996C284.268,333.355,282.474,331.56,280.273,331.56z"
         id="path38"
         style="fill:#9955ff;fill-opacity:1" /></g></g><g
     id="g48"
     style="fill:#9955ff;fill-opacity:1"><g
       id="g46"
       style="fill:#9955ff;fill-opacity:1"><path
         d="M328.21,331.56h-0.086c-2.2,0-3.948,1.795-3.948,3.994c0,2.217,1.826,3.996,4.034,3.996c2.2,0,3.995-1.78,3.995-3.996    C332.205,333.355,330.41,331.56,328.21,331.56z"
         id="path44"
         style="fill:#9955ff;fill-opacity:1" /></g></g><g
     id="g54"
     style="fill:#9955ff;fill-opacity:1"><g
       id="g52"
       style="fill:#9955ff;fill-opacity:1"><path
         d="M376.146,331.56h-0.086c-2.201,0-3.948,1.795-3.948,3.994c0,2.217,1.825,3.996,4.034,3.996c2.2,0,3.994-1.78,3.994-3.996    C380.14,333.355,378.345,331.56,376.146,331.56z"
         id="path50"
         style="fill:#9955ff;fill-opacity:1" /></g></g><g
     id="g60"
     style="fill:#9955ff;fill-opacity:1"><g
       id="g58"
       style="fill:#9955ff;fill-opacity:1"><path
         d="M424.082,331.56h-0.086c-2.2,0-3.948,1.795-3.948,3.994c0,2.217,1.826,3.996,4.034,3.996c2.2,0,3.994-1.78,3.994-3.996    C428.076,333.355,426.282,331.56,424.082,331.56z"
         id="path56"
         style="fill:#9955ff;fill-opacity:1" /></g></g><g
     id="g66"
     style="fill:#9955ff;fill-opacity:1"><g
       id="g64"
       style="fill:#9955ff;fill-opacity:1"><path
         d="M299.842,367.513h-0.086c-2.2,0-3.948,1.793-3.948,3.994c0,2.215,1.826,3.994,4.034,3.994c2.2,0,3.994-1.78,3.994-3.994    C303.836,369.306,302.042,367.513,299.842,367.513z"
         id="path62"
         style="fill:#9955ff;fill-opacity:1" /></g></g><g
     id="g72"
     style="fill:#9955ff;fill-opacity:1"><g
       id="g70"
       style="fill:#9955ff;fill-opacity:1"><path
         d="M323.809,367.513h-0.086c-2.2,0-3.948,1.793-3.948,3.994c0,2.215,1.826,3.994,4.034,3.994c2.201,0,3.995-1.78,3.995-3.994    C327.804,369.306,326.009,367.513,323.809,367.513z"
         id="path68"
         style="fill:#9955ff;fill-opacity:1" /></g></g><g
     id="g78"
     style="fill:#9955ff;fill-opacity:1"><g
       id="g76"
       style="fill:#9955ff;fill-opacity:1"><path
         d="M347.777,367.513h-0.086c-2.2,0-3.947,1.793-3.947,3.994c0,2.215,1.825,3.994,4.033,3.994c2.2,0,3.995-1.78,3.995-3.994    C351.772,369.306,349.977,367.513,347.777,367.513z"
         id="path74"
         style="fill:#9955ff;fill-opacity:1" /></g></g><g
     id="g84"
     style="fill:#9955ff;fill-opacity:1"><g
       id="g82"
       style="fill:#9955ff;fill-opacity:1"><path
         d="M371.746,367.513h-0.086c-2.201,0-3.948,1.793-3.948,3.994c0,2.215,1.825,3.994,4.034,3.994    c2.199,0,3.994-1.78,3.994-3.994C375.74,369.306,373.945,367.513,371.746,367.513z"
         id="path80"
         style="fill:#9955ff;fill-opacity:1" /></g></g><g
     id="g90"
     style="fill:#9955ff;fill-opacity:1"><g
       id="g88"
       style="fill:#9955ff;fill-opacity:1"><path
         d="M395.714,367.513h-0.086c-2.2,0-3.948,1.793-3.948,3.994c0,2.215,1.826,3.994,4.034,3.994c2.2,0,3.994-1.78,3.994-3.994    C399.708,369.306,397.914,367.513,395.714,367.513z"
         id="path86"
         style="fill:#9955ff;fill-opacity:1" /></g></g><g
     id="g96"
     style="fill:#9955ff;fill-opacity:1"><g
       id="g94"
       style="fill:#9955ff;fill-opacity:1"><path
         d="M140.054,423.437h-0.086c-2.2,0-3.947,1.795-3.947,3.996c0,2.215,1.825,3.994,4.033,3.994c2.201,0,3.996-1.78,3.995-3.994    C144.049,425.232,142.254,423.437,140.054,423.437z"
         id="path92"
         style="fill:#9955ff;fill-opacity:1" /></g></g><g
     id="g102"
     style="fill:#9955ff;fill-opacity:1"><g
       id="g100"
       style="fill:#9955ff;fill-opacity:1"><path
         d="M164.023,423.437h-0.086c-2.2,0-3.948,1.795-3.948,3.996c0,2.215,1.826,3.994,4.034,3.994c2.2,0,3.994-1.78,3.995-3.994    C168.018,425.232,166.223,423.437,164.023,423.437z"
         id="path98"
         style="fill:#9955ff;fill-opacity:1" /></g></g><g
     id="g108"
     style="fill:#9955ff;fill-opacity:1"><g
       id="g106"
       style="fill:#9955ff;fill-opacity:1"><path
         d="M188.396,423.437h-0.086c-2.2,0-3.948,1.795-3.948,3.996c0,2.215,1.826,3.994,4.034,3.994c2.2,0,3.995-1.78,3.995-3.994    C192.391,425.232,190.596,423.437,188.396,423.437z"
         id="path104"
         style="fill:#9955ff;fill-opacity:1" /></g></g><g
     id="g114"
     style="fill:#9955ff;fill-opacity:1"><g
       id="g112"
       style="fill:#9955ff;fill-opacity:1"><path
         d="M212.364,423.437h-0.085c-2.2,0-3.948,1.795-3.948,3.996c0,2.215,1.825,3.994,4.033,3.994c2.2,0,3.995-1.78,3.995-3.994    C216.359,425.232,214.564,423.437,212.364,423.437z"
         id="path110"
         style="fill:#9955ff;fill-opacity:1" /></g></g><g
     id="g120"
     style="fill:#9955ff;fill-opacity:1"><g
       id="g118"
       style="fill:#9955ff;fill-opacity:1"><path
         d="M236.331,423.437h-0.085c-2.2,0-3.948,1.795-3.948,3.996c0,2.215,1.826,3.994,4.034,3.994c2.201,0,3.995-1.78,3.994-3.994    C240.326,425.232,238.531,423.437,236.331,423.437z"
         id="path116"
         style="fill:#9955ff;fill-opacity:1" /></g></g><g
     id="g126"
     style="fill:#9955ff;fill-opacity:1"><g
       id="g124"
       style="fill:#9955ff;fill-opacity:1"><path
         d="M507.322,447.405H3.994C1.786,447.405,0,449.2,0,451.399v47.936c0,2.217,1.786,3.996,3.994,3.996s3.995-1.779,3.995-3.996    v-43.941h495.339v43.941c0,2.217,1.786,3.996,3.994,3.996s3.994-1.779,3.994-3.996v-47.936    C511.316,449.2,509.53,447.405,507.322,447.405z"
         id="path122"
         style="fill:#9955ff;fill-opacity:1" /></g></g><g
     id="g132"
     style="fill:#9955ff;fill-opacity:1"><g
       id="g130"
       style="fill:#9955ff;fill-opacity:1"><path
         d="M53.078,287.789c-2.091-0.64-4.346,0.563-4.97,2.684L0.172,450.26c-0.64,2.108,0.562,4.338,2.676,4.963    c0.381,0.123,0.764,0.17,1.146,0.17c1.717,0,3.309-1.107,3.823-2.839l47.937-159.786C56.394,290.644,55.192,288.43,53.078,287.789    z"
         id="path128"
         style="fill:#9955ff;fill-opacity:1" /></g></g><g
     id="g138"
     style="fill:#9955ff;fill-opacity:1"><g
       id="g136"
       style="fill:#9955ff;fill-opacity:1"><path
         d="M511.146,450.26l-47.937-159.787c-0.624-2.122-2.879-3.34-4.97-2.684c-2.114,0.641-3.316,2.856-2.676,4.979    l47.936,159.785c0.514,1.733,2.106,2.84,3.823,2.84c0.383,0,0.765-0.046,1.147-0.17    C510.584,454.598,511.786,452.367,511.146,450.26z"
         id="path134"
         style="fill:#9955ff;fill-opacity:1" /></g></g><g
     id="g144"
     style="fill:#9955ff;fill-opacity:1"><g
       id="g142"
       style="fill:#9955ff;fill-opacity:1"><path
         d="M459.386,287.618H51.93c-2.208,0-3.995,1.795-3.995,3.994c0,2.217,1.787,3.996,3.995,3.996h407.457    c2.207,0,3.994-1.779,3.993-3.996C463.38,289.413,461.593,287.618,459.386,287.618z"
         id="path140"
         style="fill:#9955ff;fill-opacity:1" /></g></g><g
     id="g150"
     style="fill:#9955ff;fill-opacity:1"><g
       id="g148"
       style="fill:#9955ff;fill-opacity:1"><path
         d="M51.93,23.966c-2.208,0-3.995,1.787-3.995,3.995v263.651c0,2.217,1.787,3.996,3.995,3.996    c2.208,0,3.995-1.779,3.994-3.996V27.961C55.924,25.753,54.138,23.966,51.93,23.966z"
         id="path146"
         style="fill:#9955ff;fill-opacity:1" /></g></g><g
     id="g156"
     style="fill:#9955ff;fill-opacity:1"><g
       id="g154"
       style="fill:#9955ff;fill-opacity:1"><path
         d="M459.387,23.966c-2.209,0-3.995,1.787-3.995,3.995v263.651c0,2.217,1.786,3.996,3.995,3.996    c2.207,0,3.994-1.779,3.994-3.996V27.961C463.381,25.753,461.594,23.966,459.387,23.966z"
         id="path152"
         style="fill:#9955ff;fill-opacity:1" /></g></g><g
     id="g162"
     style="fill:#9955ff;fill-opacity:1"><g
       id="g160"
       style="fill:#9955ff;fill-opacity:1"><path
         d="M459.386,23.966H51.93c-2.208,0-3.995,1.787-3.995,3.995s1.787,3.994,3.995,3.994h407.457    c2.207,0,3.993-1.786,3.993-3.994S461.593,23.966,459.386,23.966z"
         id="path158"
         style="fill:#9955ff;fill-opacity:1" /></g></g><g
     id="g168"
     style="fill:#9955ff;fill-opacity:1"><g
       id="g166"
       style="fill:#9955ff;fill-opacity:1"><path
         d="M67.909,39.945c-2.208,0-3.995,1.787-3.995,3.995v231.694c0,2.201,1.787,3.996,3.995,3.996    c2.208,0,3.994-1.795,3.994-3.996V43.94C71.903,41.732,70.117,39.945,67.909,39.945z"
         id="path164"
         style="fill:#9955ff;fill-opacity:1" /></g></g><g
     id="g174"
     style="fill:#9955ff;fill-opacity:1"><g
       id="g172"
       style="fill:#9955ff;fill-opacity:1"><path
         d="M443.408,39.945c-2.209,0-3.995,1.787-3.995,3.995v231.694c0,2.201,1.786,3.996,3.995,3.996    c2.207,0,3.994-1.795,3.994-3.996V43.94C447.402,41.732,445.615,39.945,443.408,39.945z"
         id="path170"
         style="fill:#9955ff;fill-opacity:1" /></g></g><g
     id="g180"
     style="fill:#9955ff;fill-opacity:1"><g
       id="g178"
       style="fill:#9955ff;fill-opacity:1"><path
         d="M443.408,39.945H67.909c-2.208,0-3.995,1.787-3.995,3.995s1.787,3.994,3.995,3.994h375.499    c2.207,0,3.994-1.786,3.994-3.994S445.615,39.945,443.408,39.945z"
         id="path176"
         style="fill:#9955ff;fill-opacity:1" /></g></g><g
     id="g186"
     style="fill:#9955ff;fill-opacity:1"><g
       id="g184"
       style="fill:#9955ff;fill-opacity:1"><path
         d="M64.257,303.768c-2.091-0.623-4.338,0.563-4.97,2.684l-38.339,127.83c-0.639,2.106,0.562,4.338,2.676,4.961    c0.382,0.125,0.764,0.172,1.147,0.172c1.717,0,3.308-1.108,3.823-2.84l38.339-127.828    C67.572,306.623,66.371,304.409,64.257,303.768z"
         id="path182"
         style="fill:#9955ff;fill-opacity:1" /></g></g><g
     id="g192"
     style="fill:#9955ff;fill-opacity:1"><g
       id="g190"
       style="fill:#9955ff;fill-opacity:1"><path
         d="M490.377,434.282l-38.339-127.799c-0.633-2.122-2.864-3.323-4.971-2.684c-2.114,0.641-3.316,2.856-2.676,4.979    l38.34,127.797c0.514,1.733,2.106,2.84,3.822,2.84c0.382,0,0.765-0.047,1.148-0.172    C489.815,438.62,491.017,436.387,490.377,434.282z"
         id="path188"
         style="fill:#9955ff;fill-opacity:1" /></g></g><g
     id="g198"
     style="fill:#9955ff;fill-opacity:1"><g
       id="g196"
       style="fill:#9955ff;fill-opacity:1"><path
         d="M448.214,303.597h-384.3c-2.208,0-3.994,1.795-3.994,3.994c0,2.217,1.786,3.996,3.994,3.996h384.3    c2.208,0,3.995-1.78,3.995-3.996C452.209,305.392,450.422,303.597,448.214,303.597z"
         id="path194"
         style="fill:#9955ff;fill-opacity:1" /></g></g><g
     id="g204"
     style="fill:#9955ff;fill-opacity:1"><g
       id="g202"
       style="fill:#9955ff;fill-opacity:1"><path
         d="M335.13,489.613c-0.967-1.982-3.347-2.808-5.321-1.857c-0.164,0.078-16.626,7.584-74.276,7.584    c-57.407,0-73.729-7.443-74.002-7.568c-1.951-0.966-4.338-0.187-5.329,1.764c-1.007,1.967-0.219,4.369,1.747,5.367    c0.679,0.36,17.274,8.428,77.584,8.428c60.295,0,77.124-8.068,77.81-8.413C335.301,493.935,336.089,491.58,335.13,489.613z"
         id="path200"
         style="fill:#9955ff;fill-opacity:1" /></g></g><g
     id="g210"
     style="fill:#9955ff;fill-opacity:1"><g
       id="g208"
       style="fill:#9955ff;fill-opacity:1"><path
         d="M179.76,479.363c-2.208,0-3.995,1.795-3.995,3.994v7.99c0,2.215,1.787,3.994,3.995,3.994c2.208,0,3.994-1.78,3.995-3.994    v-7.99C183.755,481.158,181.968,479.363,179.76,479.363z"
         id="path206"
         style="fill:#9955ff;fill-opacity:1" /></g></g><g
     id="g216"
     style="fill:#9955ff;fill-opacity:1"><g
       id="g214"
       style="fill:#9955ff;fill-opacity:1"><path
         d="M331.556,479.363c-2.208,0-3.994,1.795-3.994,3.994v7.99c0,2.215,1.786,3.994,3.994,3.994s3.996-1.78,3.995-3.994v-7.99    C335.551,481.158,333.764,479.363,331.556,479.363z"
         id="path212"
         style="fill:#9955ff;fill-opacity:1" /></g></g><g
     id="g222"
     style="fill:#9955ff;fill-opacity:1"><g
       id="g220"
       style="fill:#9955ff;fill-opacity:1"><path
         d="M331.557,479.362H179.76c-2.208,0-3.995,1.795-3.995,3.994c0,2.217,1.787,3.996,3.995,3.996h151.796    c2.208,0,3.996-1.779,3.996-3.996C335.552,481.157,333.765,479.362,331.557,479.362z"
         id="path218"
         style="fill:#9955ff;fill-opacity:1" /></g></g><g
     id="g228"
     style="fill:#9955ff;fill-opacity:1"><g
       id="g226"
       style="fill:#9955ff;fill-opacity:1"><path
         d="M190.573,472.544c-1.56-1.561-4.087-1.561-5.648,0l-7.989,7.988c-1.561,1.56-1.561,4.087,0,5.648    c0.78,0.781,1.802,1.172,2.824,1.172c1.022,0,2.044-0.39,2.824-1.172l7.989-7.988    C192.134,476.632,192.133,474.105,190.573,472.544z"
         id="path224"
         style="fill:#9955ff;fill-opacity:1" /></g></g><g
     id="g234"
     style="fill:#9955ff;fill-opacity:1"><g
       id="g232"
       style="fill:#9955ff;fill-opacity:1"><path
         d="M334.38,480.532l-7.988-7.988c-1.56-1.561-4.088-1.56-5.649,0c-1.561,1.56-1.561,4.087,0,5.648l7.989,7.988    c0.78,0.781,1.803,1.172,2.824,1.172c1.023,0,2.045-0.39,2.824-1.172C335.941,484.62,335.941,482.093,334.38,480.532z"
         id="path230"
         style="fill:#9955ff;fill-opacity:1" /></g></g><g
     id="g240"
     style="fill:#9955ff;fill-opacity:1"><g
       id="g238"
       style="fill:#9955ff;fill-opacity:1"><path
         d="M163.781,495.341H3.994c-2.208,0-3.994,1.795-3.994,3.994c0,2.217,1.786,3.996,3.994,3.996h159.787    c2.208,0,3.994-1.779,3.994-3.996C167.775,497.136,165.989,495.341,163.781,495.341z"
         id="path236"
         style="fill:#9955ff;fill-opacity:1" /></g></g><g
     id="g246"
     style="fill:#9955ff;fill-opacity:1"><g
       id="g244"
       style="fill:#9955ff;fill-opacity:1"><path
         d="M507.322,495.341H347.535c-2.207,0-3.994,1.795-3.994,3.994c0,2.217,1.787,3.996,3.994,3.996h159.787    c2.208,0,3.994-1.779,3.994-3.996C511.316,497.136,509.53,495.341,507.322,495.341z"
         id="path242"
         style="fill:#9955ff;fill-opacity:1" /></g></g><g
     id="g252"
     style="fill:#9955ff;fill-opacity:1"><g
       id="g250"
       style="fill:#9955ff;fill-opacity:1"><path
         d="M59.92,463.383c-2.208,0-3.995,1.795-3.995,3.994v15.979c0,2.217,1.787,3.996,3.995,3.996s3.994-1.779,3.994-3.996    v-15.979C63.914,465.178,62.128,463.383,59.92,463.383z"
         id="path248"
         style="fill:#9955ff;fill-opacity:1" /></g></g><g
     id="g258"
     style="fill:#9955ff;fill-opacity:1"><g
       id="g256"
       style="fill:#9955ff;fill-opacity:1"><path
         d="M115.845,479.362H59.92c-2.208,0-3.995,1.795-3.995,3.994c0,2.217,1.787,3.996,3.995,3.996h55.925    c2.208,0,3.995-1.779,3.995-3.996C119.84,481.157,118.053,479.362,115.845,479.362z"
         id="path254"
         style="fill:#9955ff;fill-opacity:1" /></g></g><g
     id="g264"
     style="fill:#9955ff;fill-opacity:1"><g
       id="g262"
       style="fill:#9955ff;fill-opacity:1"><path
         d="M115.845,464.256c-2.208,0-3.994,1.795-3.994,3.996v15.104c0,2.217,1.786,3.996,3.994,3.996s3.995-1.779,3.995-3.996    v-15.104C119.84,466.051,118.053,464.256,115.845,464.256z"
         id="path260"
         style="fill:#9955ff;fill-opacity:1" /></g></g><g
     id="g270"
     style="fill:#9955ff;fill-opacity:1"><g
       id="g268"
       style="fill:#9955ff;fill-opacity:1"><path
         d="M387.482,463.383c-2.208,0-3.995,1.795-3.995,3.994v15.979c0,2.217,1.787,3.996,3.995,3.996s3.994-1.779,3.994-3.996    v-15.979C391.476,465.178,389.69,463.383,387.482,463.383z"
         id="path266"
         style="fill:#9955ff;fill-opacity:1" /></g></g><g
     id="g276"
     style="fill:#9955ff;fill-opacity:1"><g
       id="g274"
       style="fill:#9955ff;fill-opacity:1"><path
         d="M443.408,479.362h-55.926c-2.208,0-3.995,1.795-3.995,3.994c0,2.217,1.787,3.996,3.995,3.996h55.926    c2.207,0,3.994-1.779,3.994-3.996C447.402,481.157,445.615,479.362,443.408,479.362z"
         id="path272"
         style="fill:#9955ff;fill-opacity:1" /></g></g><g
     id="g282"
     style="fill:#9955ff;fill-opacity:1"><g
       id="g280"
       style="fill:#9955ff;fill-opacity:1"><path
         d="M443.408,464.256c-2.209,0-3.995,1.795-3.995,3.996v15.104c0,2.217,1.786,3.996,3.995,3.996    c2.207,0,3.994-1.779,3.994-3.996v-15.104C447.402,466.051,445.615,464.256,443.408,464.256z"
         id="path278"
         style="fill:#9955ff;fill-opacity:1" /></g></g><g
     id="g288"
     style="fill:#9955ff;fill-opacity:1"><g
       id="g286"
       style="fill:#9955ff;fill-opacity:1"><path
         d="M427.429,463.384h-23.968c-2.208,0-3.994,1.795-3.994,3.994c0,2.217,1.786,3.996,3.994,3.996h23.968    c2.208,0,3.995-1.779,3.995-3.996C431.424,465.179,429.637,463.384,427.429,463.384z"
         id="path284"
         style="fill:#9955ff;fill-opacity:1" /></g></g><g
     id="g294"
     style="fill:#9955ff;fill-opacity:1"><g
       id="g292"
       style="fill:#9955ff;fill-opacity:1"><path
         d="M99.866,463.384H75.898c-2.208,0-3.995,1.795-3.995,3.994c0,2.217,1.787,3.996,3.995,3.996h23.968    c2.208,0,3.995-1.779,3.995-3.996C103.861,465.179,102.074,463.384,99.866,463.384z"
         id="path290"
         style="fill:#9955ff;fill-opacity:1" /></g></g><g
     id="g300"
     style="fill:#9955ff;fill-opacity:1"><g
       id="g298"
       style="fill:#9955ff;fill-opacity:1"><path
         d="M147.802,7.987h-39.947c-2.208,0-3.994,1.787-3.994,3.995s1.786,3.995,3.994,3.995h39.947    c2.208,0,3.995-1.787,3.995-3.995S150.01,7.987,147.802,7.987z"
         id="path296"
         style="fill:#9955ff;fill-opacity:1" /></g></g><g
     id="g306"
     style="fill:#9955ff;fill-opacity:1"><g
       id="g304"
       style="fill:#9955ff;fill-opacity:1"><path
         d="M107.855,7.987c-2.208,0-3.994,1.787-3.994,3.995v7.989c0,2.208,1.786,3.995,3.994,3.995s3.995-1.786,3.995-3.995v-7.989    C111.85,9.774,110.063,7.987,107.855,7.987z"
         id="path302"
         style="fill:#9955ff;fill-opacity:1" /></g></g><g
     id="g312"
     style="fill:#9955ff;fill-opacity:1"><g
       id="g310"
       style="fill:#9955ff;fill-opacity:1"><path
         d="M127.837,7.987c-2.208,0-3.995,1.787-3.995,3.995v7.989c0,2.208,1.787,3.995,3.995,3.995s3.994-1.786,3.995-3.995v-7.989    C131.832,9.774,130.045,7.987,127.837,7.987z"
         id="path308"
         style="fill:#9955ff;fill-opacity:1" /></g></g><g
     id="g318"
     style="fill:#9955ff;fill-opacity:1"><g
       id="g316"
       style="fill:#9955ff;fill-opacity:1"><path
         d="M147.802,7.987c-2.208,0-3.995,1.787-3.995,3.995v7.989c0,2.208,1.787,3.995,3.995,3.995c2.208,0,3.995-1.786,3.995-3.995    v-7.989C151.797,9.774,150.01,7.987,147.802,7.987z"
         id="path314"
         style="fill:#9955ff;fill-opacity:1" /></g></g><g
     id="g324"
     style="fill:#9955ff;fill-opacity:1"><g
       id="g322"
       style="fill:#9955ff;fill-opacity:1"><path
         d="M403.461,7.987h-39.946c-2.208,0-3.995,1.787-3.995,3.995s1.787,3.995,3.995,3.995h39.946    c2.208,0,3.994-1.787,3.994-3.995S405.669,7.987,403.461,7.987z"
         id="path320"
         style="fill:#9955ff;fill-opacity:1" /></g></g><g
     id="g330"
     style="fill:#9955ff;fill-opacity:1"><g
       id="g328"
       style="fill:#9955ff;fill-opacity:1"><path
         d="M363.514,7.987c-2.208,0-3.995,1.787-3.995,3.995v7.989c0,2.208,1.787,3.995,3.995,3.995s3.995-1.786,3.994-3.995v-7.989    C367.508,9.774,365.722,7.987,363.514,7.987z"
         id="path326"
         style="fill:#9955ff;fill-opacity:1" /></g></g><g
     id="g336"
     style="fill:#9955ff;fill-opacity:1"><g
       id="g334"
       style="fill:#9955ff;fill-opacity:1"><path
         d="M403.461,7.987c-2.208,0-3.994,1.787-3.994,3.995v7.989c0,2.208,1.786,3.995,3.994,3.995c2.208,0,3.994-1.786,3.994-3.995    v-7.989C407.455,9.774,405.669,7.987,403.461,7.987z"
         id="path332"
         style="fill:#9955ff;fill-opacity:1" /></g></g><g
     id="g342"
     style="fill:#9955ff;fill-opacity:1"><g
       id="g340"
       style="fill:#9955ff;fill-opacity:1"><path
         d="M383.487,7.987c-2.208,0-3.994,1.787-3.994,3.995v7.989c0,2.208,1.786,3.995,3.994,3.995c2.208,0,3.995-1.786,3.995-3.995    v-7.989C387.482,9.774,385.695,7.987,383.487,7.987z"
         id="path338"
         style="fill:#9955ff;fill-opacity:1" /></g></g><g
     id="g348"
     style="fill:#9955ff;fill-opacity:1"><g
       id="g346"
       style="fill:#9955ff;fill-opacity:1"><path
         d="M88.288,319.574c-11.017,0-19.974,7.178-19.974,15.979c0,8.817,8.957,15.979,19.974,15.979    c11.016,0,19.974-7.162,19.974-15.979C108.262,326.752,99.305,319.574,88.288,319.574z M88.288,343.543    c-6.499,0-11.984-3.652-11.984-7.99c0-4.322,5.485-7.988,11.984-7.988s11.984,3.666,11.984,7.988    C100.272,339.891,94.787,343.543,88.288,343.543z"
         id="path344"
         style="fill:#9955ff;fill-opacity:1" /></g></g><g
     id="g354"
     style="fill:#9955ff;fill-opacity:1"><g
       id="g352"
       style="fill:#9955ff;fill-opacity:1"><path
         d="M136.224,319.574c-11.016,0-19.973,7.178-19.973,15.979c0,8.817,8.956,15.979,19.973,15.979    c11.016,0,19.973-7.162,19.973-15.979C156.197,326.752,147.24,319.574,136.224,319.574z M136.224,343.543    c-6.5,0-11.984-3.652-11.984-7.99c0-4.322,5.484-7.988,11.984-7.988c6.499,0,11.984,3.666,11.984,7.988    C148.208,339.891,142.723,343.543,136.224,343.543z"
         id="path350"
         style="fill:#9955ff;fill-opacity:1" /></g></g><g
     id="g360"
     style="fill:#9955ff;fill-opacity:1"><g
       id="g358"
       style="fill:#9955ff;fill-opacity:1"><path
         d="M184.16,319.574c-11.017,0-19.974,7.178-19.974,15.979c0,8.817,8.957,15.979,19.974,15.979    c11.017,0,19.973-7.162,19.973-15.979C204.133,326.752,195.177,319.574,184.16,319.574z M184.16,343.543    c-6.499,0-11.984-3.652-11.984-7.99c0-4.322,5.485-7.988,11.984-7.988s11.984,3.666,11.984,7.988    C196.144,339.891,190.659,343.543,184.16,343.543z"
         id="path356"
         style="fill:#9955ff;fill-opacity:1" /></g></g><g
     id="g366"
     style="fill:#9955ff;fill-opacity:1"><g
       id="g364"
       style="fill:#9955ff;fill-opacity:1"><path
         d="M280.032,319.574c-11.017,0-19.974,7.178-19.974,15.979c0,8.817,8.957,15.979,19.974,15.979    c11.017,0,19.974-7.162,19.974-15.979C300.006,326.752,291.049,319.574,280.032,319.574z M280.032,343.543    c-6.499,0-11.984-3.652-11.984-7.99c0-4.322,5.485-7.988,11.984-7.988c6.499,0,11.983,3.666,11.983,7.988    C292.015,339.891,286.531,343.543,280.032,343.543z"
         id="path362"
         style="fill:#9955ff;fill-opacity:1" /></g></g><g
     id="g372"
     style="fill:#9955ff;fill-opacity:1"><g
       id="g370"
       style="fill:#9955ff;fill-opacity:1"><path
         d="M327.968,319.574c-11.017,0-19.974,7.178-19.974,15.979c0,8.817,8.957,15.979,19.974,15.979    c11.016,0,19.973-7.162,19.974-15.979C347.942,326.752,338.985,319.574,327.968,319.574z M327.968,343.543    c-6.499,0-11.983-3.652-11.983-7.99c0-4.322,5.484-7.988,11.983-7.988c6.499,0,11.984,3.666,11.984,7.988    C339.952,339.891,334.467,343.543,327.968,343.543z"
         id="path368"
         style="fill:#9955ff;fill-opacity:1" /></g></g><g
     id="g378"
     style="fill:#9955ff;fill-opacity:1"><g
       id="g376"
       style="fill:#9955ff;fill-opacity:1"><path
         d="M375.904,319.574c-11.017,0-19.974,7.178-19.974,15.979c0,8.817,8.957,15.979,19.974,15.979    c11.017,0,19.973-7.162,19.973-15.979C395.877,326.752,386.921,319.574,375.904,319.574z M375.904,343.543    c-6.5,0-11.984-3.652-11.984-7.99c0-4.322,5.484-7.988,11.984-7.988c6.499,0,11.983,3.666,11.983,7.988    C387.887,339.891,382.403,343.543,375.904,343.543z"
         id="path374"
         style="fill:#9955ff;fill-opacity:1" /></g></g><g
     id="g384"
     style="fill:#9955ff;fill-opacity:1"><g
       id="g382"
       style="fill:#9955ff;fill-opacity:1"><path
         d="M423.84,319.574c-11.017,0-19.973,7.178-19.973,15.979c0,8.817,8.956,15.979,19.973,15.979    c11.016,0,19.973-7.162,19.974-15.979C443.814,326.752,434.857,319.574,423.84,319.574z M423.84,343.543    c-6.499,0-11.984-3.652-11.984-7.99c0-4.322,5.485-7.988,11.984-7.988c6.499,0,11.984,3.666,11.984,7.988    C435.824,339.891,430.339,343.543,423.84,343.543z"
         id="path380"
         style="fill:#9955ff;fill-opacity:1" /></g></g><g
     id="g390"
     style="fill:#9955ff;fill-opacity:1"><g
       id="g388"
       style="fill:#9955ff;fill-opacity:1"><path
         d="M91.877,367.515c-14.925,0-28.43,7.333-33.611,18.271c-0.585,1.233-0.492,2.684,0.234,3.838    c0.733,1.156,2.005,1.857,3.378,1.857h20.355l3.995,3.994l-3.995,3.996H61.878c-1.373,0-2.645,0.701-3.378,1.855    c-0.725,1.156-0.819,2.623-0.234,3.855c5.18,10.921,18.686,18.271,33.611,18.271c19.825,0,35.952-12.545,35.952-27.976    C127.829,380.06,111.702,367.515,91.877,367.515z M91.876,415.464c-8.863,0-17.008-3.059-22.189-8.006v-0.001h14.2    c1.061,0,2.075-0.42,2.824-1.17l7.989-7.99c1.561-1.558,1.561-4.087,0-5.648l-7.989-7.988c-0.749-0.75-1.763-1.17-2.824-1.17    h-14.2c5.18-4.947,13.326-7.99,22.189-7.99c15.417,0,27.963,8.957,27.963,19.973C119.839,406.491,107.293,415.464,91.876,415.464z    "
         id="path386"
         style="fill:#9955ff;fill-opacity:1" /></g></g><g
     id="g396"
     style="fill:#9955ff;fill-opacity:1"><g
       id="g394"
       style="fill:#9955ff;fill-opacity:1"><path
         d="M251.663,383.491H137.987c-2.208,0-3.995,1.793-3.995,3.994c0,2.215,1.787,3.994,3.995,3.994h113.676    c2.208,0,3.995-1.779,3.995-3.994C255.658,385.284,253.871,383.491,251.663,383.491z"
         id="path392"
         style="fill:#9955ff;fill-opacity:1" /></g></g><g
     id="g402"
     style="fill:#9955ff;fill-opacity:1"><g
       id="g400"
       style="fill:#9955ff;fill-opacity:1"><path
         d="M251.663,399.47H137.987c-2.208,0-3.995,1.793-3.995,3.994c0,2.215,1.787,3.994,3.995,3.994h113.676    c2.208,0,3.995-1.779,3.995-3.994C255.658,401.263,253.871,399.47,251.663,399.47z"
         id="path398"
         style="fill:#9955ff;fill-opacity:1" /></g></g><g
     id="g408"
     style="fill:#9955ff;fill-opacity:1"><g
       id="g406"
       style="fill:#9955ff;fill-opacity:1"><path
         d="M251.663,383.492c-2.208,0-3.995,1.793-3.995,3.994c0,2.215,1.787,3.994,3.995,3.994c2.201,0,3.995,1.795,3.995,3.994    c0,2.201-1.795,3.996-3.995,3.996c-2.208,0-3.995,1.793-3.995,3.994c0,2.215,1.787,3.994,3.995,3.994    c6.608,0,11.984-5.367,11.984-11.984C263.647,388.875,258.271,383.492,251.663,383.492z"
         id="path404"
         style="fill:#9955ff;fill-opacity:1" /></g></g><g
     id="g414"
     style="fill:#9955ff;fill-opacity:1"><g
       id="g412"
       style="fill:#9955ff;fill-opacity:1"><path
         d="M463.256,434.423l-16.478-63.916c-0.554-2.137-2.716-3.432-4.868-2.871c-2.139,0.562-3.418,2.732-2.871,4.869    l16.478,63.914c0.468,1.81,2.091,2.996,3.87,2.996c0.327,0,0.663-0.031,0.998-0.125    C462.523,438.745,463.803,436.56,463.256,434.423z"
         id="path410"
         style="fill:#9955ff;fill-opacity:1" /></g></g><g
     id="g420"
     style="fill:#9955ff;fill-opacity:1"><g
       id="g418"
       style="fill:#9955ff;fill-opacity:1"><path
         d="M459.387,431.426l-23.969,0.016c-2.208,0-3.994,1.779-3.994,3.994c0,2.201,1.786,3.994,3.994,3.994l23.969-0.016    c2.207,0,3.994-1.777,3.994-3.994C463.381,433.221,461.594,431.426,459.387,431.426z"
         id="path416"
         style="fill:#9955ff;fill-opacity:1" /></g></g><g
     id="g426"
     style="fill:#9955ff;fill-opacity:1"><g
       id="g424"
       style="fill:#9955ff;fill-opacity:1"><path
         d="M439.288,434.438l-18.476-71.889c-0.553-2.155-2.754-3.449-4.86-2.887c-2.138,0.547-3.425,2.73-2.879,4.869l18.476,71.887    c0.468,1.811,2.091,3.012,3.869,3.012c0.328,0,0.664-0.046,0.991-0.125C438.547,438.76,439.834,436.575,439.288,434.438z"
         id="path422"
         style="fill:#9955ff;fill-opacity:1" /></g></g><g
     id="g432"
     style="fill:#9955ff;fill-opacity:1"><g
       id="g430"
       style="fill:#9955ff;fill-opacity:1"><path
         d="M444.077,367.698l-25.965-7.973c-2.122-0.672-4.345,0.516-4.985,2.637c-0.647,2.107,0.531,4.338,2.645,4.994l25.966,7.973    c0.39,0.125,0.78,0.172,1.17,0.172c1.709,0,3.293-1.092,3.815-2.824C447.37,370.569,446.192,368.339,444.077,367.698z"
         id="path428"
         style="fill:#9955ff;fill-opacity:1" /></g></g><g
     id="g438"
     style="fill:#9955ff;fill-opacity:1"><g
       id="g436"
       style="fill:#9955ff;fill-opacity:1"><path
         d="M409.172,391.48H291.61c-2.208,0-3.995,1.795-3.995,3.994c0,2.217,1.787,3.996,3.995,3.996h117.562    c2.208,0,3.995-1.78,3.995-3.996C413.167,393.275,411.38,391.48,409.172,391.48z"
         id="path434"
         style="fill:#9955ff;fill-opacity:1" /></g></g><g
     id="g444"
     style="fill:#9955ff;fill-opacity:1"><g
       id="g442"
       style="fill:#9955ff;fill-opacity:1"><path
         d="M413.275,407.458H291.61c-2.208,0-3.995,1.795-3.995,3.994c0,2.217,1.787,3.996,3.995,3.996h121.665    c2.209,0,3.995-1.779,3.995-3.996C417.27,409.253,415.484,407.458,413.275,407.458z"
         id="path440"
         style="fill:#9955ff;fill-opacity:1" /></g></g><g
     id="g450"
     style="fill:#9955ff;fill-opacity:1"><g
       id="g448"
       style="fill:#9955ff;fill-opacity:1"><path
         d="M291.61,407.474c-2.2,0-3.995-1.795-3.995-3.994c0-2.201,1.795-3.994,3.995-3.994c2.208,0,3.995-1.779,3.995-3.996    c0-2.199-1.787-3.994-3.995-3.994c-6.608,0-11.984,5.382-11.984,11.984c0,6.615,5.376,11.984,11.984,11.984    c2.208,0,3.995-1.78,3.995-3.996C295.605,409.269,293.818,407.474,291.61,407.474z"
         id="path446"
         style="fill:#9955ff;fill-opacity:1" /></g></g><g
     id="g456"
     style="fill:#9955ff;fill-opacity:1"><g
       id="g454"
       style="fill:#9955ff;fill-opacity:1"><path
         d="M111.85,263.651h-7.989c-2.208,0-3.995,1.793-3.995,3.994c0,2.215,1.787,3.994,3.995,3.994h7.989    c2.208,0,3.995-1.779,3.994-3.994C115.844,265.444,114.058,263.651,111.85,263.651z"
         id="path452"
         style="fill:#9955ff;fill-opacity:1" /></g></g><g
     id="g462"
     style="fill:#9955ff;fill-opacity:1"><g
       id="g460"
       style="fill:#9955ff;fill-opacity:1"><path
         d="M121.103,239.888c-2.076-0.679-4.354,0.437-5.056,2.528l-7.989,23.965c-0.694,2.09,0.437,4.354,2.528,5.055    c0.421,0.141,0.842,0.203,1.264,0.203c1.67,0,3.23-1.06,3.792-2.731l7.989-23.964C124.326,242.853,123.194,240.59,121.103,239.888    z"
         id="path458"
         style="fill:#9955ff;fill-opacity:1" /></g></g><g
     id="g468"
     style="fill:#9955ff;fill-opacity:1"><g
       id="g466"
       style="fill:#9955ff;fill-opacity:1"><path
         d="M107.652,266.382l-7.989-23.965c-0.702-2.091-2.957-3.215-5.056-2.528c-2.09,0.702-3.221,2.965-2.527,5.056l7.989,23.964    c0.562,1.669,2.122,2.73,3.792,2.73c0.421,0,0.842-0.062,1.263-0.202C107.215,270.736,108.346,268.472,107.652,266.382z"
         id="path464"
         style="fill:#9955ff;fill-opacity:1" /></g></g><g
     id="g474"
     style="fill:#9955ff;fill-opacity:1"><g
       id="g472"
       style="fill:#9955ff;fill-opacity:1"><path
         d="M100.834,223.824c-2.169-0.515-4.314,0.764-4.845,2.91l-3.995,15.979c-0.531,2.137,0.764,4.306,2.91,4.845    c0.327,0.078,0.647,0.117,0.967,0.117c1.795,0,3.426-1.209,3.878-3.027l3.995-15.979    C104.274,226.531,102.98,224.362,100.834,223.824z"
         id="path470"
         style="fill:#9955ff;fill-opacity:1" /></g></g><g
     id="g480"
     style="fill:#9955ff;fill-opacity:1"><g
       id="g478"
       style="fill:#9955ff;fill-opacity:1"><path
         d="M123.717,242.713l-3.995-15.979c-0.538-2.145-2.73-3.433-4.845-2.91c-2.145,0.538-3.441,2.707-2.91,4.845l3.995,15.979    c0.453,1.818,2.083,3.027,3.878,3.027c0.319,0,0.647-0.039,0.967-0.117C122.952,247.02,124.248,244.851,123.717,242.713z"
         id="path476"
         style="fill:#9955ff;fill-opacity:1" /></g></g><g
     id="g486"
     style="fill:#9955ff;fill-opacity:1"><g
       id="g484"
       style="fill:#9955ff;fill-opacity:1"><path
         d="M99.866,175.771c-2.208,0-3.995,1.787-3.995,3.995v47.936c0,2.208,1.787,3.995,3.995,3.995s3.995-1.787,3.995-3.995    v-47.936C103.861,177.558,102.074,175.771,99.866,175.771z"
         id="path482"
         style="fill:#9955ff;fill-opacity:1" /></g></g><g
     id="g492"
     style="fill:#9955ff;fill-opacity:1"><g
       id="g490"
       style="fill:#9955ff;fill-opacity:1"><path
         d="M115.845,175.771c-2.208,0-3.994,1.787-3.994,3.995v47.936c0,2.208,1.786,3.995,3.994,3.995s3.995-1.787,3.995-3.995    v-47.936C119.84,177.558,118.053,175.771,115.845,175.771z"
         id="path488"
         style="fill:#9955ff;fill-opacity:1" /></g></g><g
     id="g498"
     style="fill:#9955ff;fill-opacity:1"><g
       id="g496"
       style="fill:#9955ff;fill-opacity:1"><path
         d="M107.855,63.921c-11.016,0-19.973,8.956-19.973,19.973c0,2.208,1.787,3.995,3.995,3.995s3.995-1.787,3.995-3.995    c0-6.609,5.376-11.984,11.984-11.984c6.608,0,11.984,5.376,11.984,11.984c0,2.208,1.786,3.995,3.994,3.995    s3.995-1.787,3.995-3.995C127.829,72.878,118.871,63.921,107.855,63.921z"
         id="path494"
         style="fill:#9955ff;fill-opacity:1" /></g></g><g
     id="g504"
     style="fill:#9955ff;fill-opacity:1"><g
       id="g502"
       style="fill:#9955ff;fill-opacity:1"><path
         d="M123.834,79.9c-2.208,0-3.994,1.786-3.994,3.994v87.882c0,2.208,1.786,3.995,3.994,3.995s3.995-1.786,3.995-3.994V83.894    C127.829,81.686,126.042,79.9,123.834,79.9z"
         id="path500"
         style="fill:#9955ff;fill-opacity:1" /></g></g><g
     id="g510"
     style="fill:#9955ff;fill-opacity:1"><g
       id="g508"
       style="fill:#9955ff;fill-opacity:1"><path
         d="M91.877,79.9c-2.208,0-3.995,1.786-3.995,3.994v87.882c0,2.208,1.787,3.995,3.995,3.995s3.994-1.786,3.995-3.994V83.894    C95.872,81.686,94.085,79.9,91.877,79.9z"
         id="path506"
         style="fill:#9955ff;fill-opacity:1" /></g></g><g
     id="g516"
     style="fill:#9955ff;fill-opacity:1"><g
       id="g514"
       style="fill:#9955ff;fill-opacity:1"><path
         d="M123.834,167.781H91.877c-2.208,0-3.995,1.787-3.995,3.995s1.787,3.995,3.995,3.995h31.957    c2.208,0,3.995-1.787,3.995-3.995S126.042,167.781,123.834,167.781z"
         id="path512"
         style="fill:#9955ff;fill-opacity:1" /></g></g><g
     id="g522"
     style="fill:#9955ff;fill-opacity:1"><g
       id="g520"
       style="fill:#9955ff;fill-opacity:1"><path
         d="M107.855,87.889c-2.208,0-3.994,1.786-3.994,3.994v55.926c0,2.208,1.786,3.994,3.994,3.994s3.995-1.786,3.995-3.994    V91.883C111.85,89.675,110.063,87.889,107.855,87.889z"
         id="path518"
         style="fill:#9955ff;fill-opacity:1" /></g></g><g
     id="g528"
     style="fill:#9955ff;fill-opacity:1"><g
       id="g526"
       style="fill:#9955ff;fill-opacity:1"><path
         d="M183.754,231.696c-8.809,0-15.979,7.17-15.979,15.979c0,8.809,7.17,15.976,15.979,15.976    c8.808,0,15.979-7.167,15.979-15.976C199.733,238.866,192.562,231.696,183.754,231.696z M183.754,255.664    c-4.408,0-7.99-3.581-7.99-7.989s3.582-7.989,7.99-7.989s7.989,3.581,7.989,7.989S188.162,255.664,183.754,255.664z"
         id="path524"
         style="fill:#9955ff;fill-opacity:1" /></g></g><g
     id="g534"
     style="fill:#9955ff;fill-opacity:1"><g
       id="g532"
       style="fill:#9955ff;fill-opacity:1"><path
         d="M383.487,231.696c-8.808,0-15.979,7.17-15.979,15.979c0,8.809,7.171,15.976,15.979,15.976    c8.809,0,15.979-7.167,15.979-15.976C399.466,238.866,392.296,231.696,383.487,231.696z M383.487,255.664    c-4.408,0-7.989-3.581-7.989-7.989s3.581-7.989,7.989-7.989c4.408,0,7.989,3.581,7.989,7.989S387.895,255.664,383.487,255.664z"
         id="path530"
         style="fill:#9955ff;fill-opacity:1" /></g></g><g
     id="g540"
     style="fill:#9955ff;fill-opacity:1"><g
       id="g538"
       style="fill:#9955ff;fill-opacity:1"><path
         d="M251.663,231.697c-2.208,0-3.995,1.787-3.995,3.995v23.967c0,2.209,1.787,3.992,3.995,3.992s3.995-1.783,3.995-3.992    v-23.967C255.658,233.484,253.871,231.697,251.663,231.697z"
         id="path536"
         style="fill:#9955ff;fill-opacity:1" /></g></g><g
     id="g546"
     style="fill:#9955ff;fill-opacity:1"><g
       id="g544"
       style="fill:#9955ff;fill-opacity:1"><path
         d="M315.578,231.697c-2.208,0-3.994,1.787-3.994,3.995v23.967c0,2.209,1.786,3.992,3.994,3.992    c2.208,0,3.995-1.783,3.995-3.992v-23.967C319.573,233.484,317.786,231.697,315.578,231.697z"
         id="path542"
         style="fill:#9955ff;fill-opacity:1" /></g></g><g
     id="g552"
     style="fill:#9955ff;fill-opacity:1"><g
       id="g550"
       style="fill:#9955ff;fill-opacity:1"><path
         d="M315.578,167.781H155.792c-2.208,0-3.995,1.787-3.995,3.995s1.787,3.995,3.995,3.995h159.786    c2.208,0,3.995-1.787,3.995-3.995S317.786,167.781,315.578,167.781z"
         id="path548"
         style="fill:#9955ff;fill-opacity:1" /></g></g><g
     id="g558"
     style="fill:#9955ff;fill-opacity:1"><g
       id="g556"
       style="fill:#9955ff;fill-opacity:1"><path
         d="M315.578,183.761H155.792c-2.208,0-3.995,1.786-3.995,3.994s1.787,3.995,3.995,3.995h159.786    c2.208,0,3.995-1.787,3.995-3.995S317.786,183.761,315.578,183.761z"
         id="path554"
         style="fill:#9955ff;fill-opacity:1" /></g></g><g
     id="g564"
     style="fill:#9955ff;fill-opacity:1"><g
       id="g562"
       style="fill:#9955ff;fill-opacity:1"><path
         d="M155.792,167.781c-2.208,0-3.995,1.787-3.995,3.995v15.979c0,2.208,1.787,3.995,3.995,3.995    c2.208,0,3.994-1.787,3.994-3.995v-15.979C159.786,169.568,158,167.781,155.792,167.781z"
         id="path560"
         style="fill:#9955ff;fill-opacity:1" /></g></g><g
     id="g570"
     style="fill:#9955ff;fill-opacity:1"><g
       id="g568"
       style="fill:#9955ff;fill-opacity:1"><path
         d="M323.567,159.793c-2.208,0-3.994,1.787-3.994,3.995v31.957c0,2.208,1.786,3.995,3.994,3.995s3.995-1.788,3.995-3.995    v-31.957C327.562,161.58,325.775,159.793,323.567,159.793z"
         id="path566"
         style="fill:#9955ff;fill-opacity:1" /></g></g><g
     id="g576"
     style="fill:#9955ff;fill-opacity:1"><g
       id="g574"
       style="fill:#9955ff;fill-opacity:1"><path
         d="M403.461,191.751h-79.894c-2.208,0-3.994,1.786-3.994,3.994s1.786,3.995,3.994,3.995h79.894    c2.208,0,3.994-1.787,3.994-3.995S405.669,191.751,403.461,191.751z"
         id="path572"
         style="fill:#9955ff;fill-opacity:1" /></g></g><g
     id="g582"
     style="fill:#9955ff;fill-opacity:1"><g
       id="g580"
       style="fill:#9955ff;fill-opacity:1"><path
         d="M403.461,159.792h-79.894c-2.208,0-3.994,1.787-3.994,3.995s1.786,3.995,3.994,3.995h79.894    c2.208,0,3.994-1.787,3.994-3.995S405.669,159.792,403.461,159.792z"
         id="path578"
         style="fill:#9955ff;fill-opacity:1" /></g></g><g
     id="g588"
     style="fill:#9955ff;fill-opacity:1"><g
       id="g586"
       style="fill:#9955ff;fill-opacity:1"><path
         d="M403.461,159.793c-2.208,0-3.994,1.787-3.994,3.995c0,2.208,1.786,3.995,3.994,3.995c6.608,0,11.984,5.376,11.984,11.984    c0,6.608-5.376,11.984-11.984,11.984c-2.208,0-3.994,1.786-3.994,3.994s1.786,3.995,3.994,3.995    c11.016,0,19.974-8.958,19.974-19.974C423.435,168.75,414.478,159.793,403.461,159.793z"
         id="path584"
         style="fill:#9955ff;fill-opacity:1" /></g></g><g
     id="g594"
     style="fill:#9955ff;fill-opacity:1"><g
       id="g592"
       style="fill:#9955ff;fill-opacity:1"><path
         d="M283.863,243.681h-0.086c-2.2,0-3.948,1.786-3.948,3.994s1.825,3.995,4.034,3.995c2.199,0,3.994-1.787,3.994-3.995    S286.062,243.681,283.863,243.681z"
         id="path590"
         style="fill:#9955ff;fill-opacity:1" /></g></g><g
     id="g600"
     style="fill:#9955ff;fill-opacity:1"><g
       id="g598"
       style="fill:#9955ff;fill-opacity:1"><path
         d="M180,175.771h-0.085c-2.2,0-3.948,1.787-3.948,3.995s1.826,3.995,4.034,3.995c2.2,0,3.994-1.787,3.994-3.995    S182.2,175.771,180,175.771z"
         id="path596"
         style="fill:#9955ff;fill-opacity:1" /></g></g><g
     id="g606"
     style="fill:#9955ff;fill-opacity:1"><g
       id="g604"
       style="fill:#9955ff;fill-opacity:1"><path
         d="M195.98,175.771h-0.086c-2.2,0-3.948,1.787-3.948,3.995s1.826,3.995,4.034,3.995c2.2,0,3.994-1.787,3.994-3.995    S198.18,175.771,195.98,175.771z"
         id="path602"
         style="fill:#9955ff;fill-opacity:1" /></g></g><g
     id="g612"
     style="fill:#9955ff;fill-opacity:1"><g
       id="g610"
       style="fill:#9955ff;fill-opacity:1"><path
         d="M211.959,175.771h-0.086c-2.2,0-3.948,1.787-3.948,3.995s1.826,3.995,4.034,3.995c2.2,0,3.995-1.787,3.995-3.995    S214.159,175.771,211.959,175.771z"
         id="path608"
         style="fill:#9955ff;fill-opacity:1" /></g></g><g
     id="g618"
     style="fill:#9955ff;fill-opacity:1"><g
       id="g616"
       style="fill:#9955ff;fill-opacity:1"><path
         d="M227.937,175.771h-0.086c-2.2,0-3.948,1.787-3.948,3.995s1.826,3.995,4.034,3.995c2.2,0,3.995-1.787,3.995-3.995    S230.137,175.771,227.937,175.771z"
         id="path614"
         style="fill:#9955ff;fill-opacity:1" /></g></g><g
     id="g624"
     style="fill:#9955ff;fill-opacity:1"><g
       id="g622"
       style="fill:#9955ff;fill-opacity:1"><path
         d="M243.916,175.771h-0.086c-2.2,0-3.947,1.787-3.947,3.995s1.825,3.995,4.033,3.995c2.2,0,3.995-1.787,3.995-3.995    S246.116,175.771,243.916,175.771z"
         id="path620"
         style="fill:#9955ff;fill-opacity:1" /></g></g><g
     id="g630"
     style="fill:#9955ff;fill-opacity:1"><g
       id="g628"
       style="fill:#9955ff;fill-opacity:1"><path
         d="M259.894,175.771h-0.086c-2.199,0-3.947,1.787-3.947,3.995s1.825,3.995,4.033,3.995c2.201,0,3.995-1.787,3.995-3.995    S262.094,175.771,259.894,175.771z"
         id="path626"
         style="fill:#9955ff;fill-opacity:1" /></g></g><g
     id="g636"
     style="fill:#9955ff;fill-opacity:1"><g
       id="g634"
       style="fill:#9955ff;fill-opacity:1"><path
         d="M275.873,175.771h-0.086c-2.199,0-3.947,1.787-3.947,3.995s1.826,3.995,4.033,3.995c2.201,0,3.995-1.787,3.995-3.995    S278.074,175.771,275.873,175.771z"
         id="path632"
         style="fill:#9955ff;fill-opacity:1" /></g></g><g
     id="g642"
     style="fill:#9955ff;fill-opacity:1"><g
       id="g640"
       style="fill:#9955ff;fill-opacity:1"><path
         d="M291.852,175.771h-0.086c-2.2,0-3.948,1.787-3.948,3.995s1.826,3.995,4.034,3.995c2.201,0,3.994-1.787,3.994-3.995    S294.052,175.771,291.852,175.771z"
         id="path638"
         style="fill:#9955ff;fill-opacity:1" /></g></g><g
     id="g648"
     style="fill:#9955ff;fill-opacity:1"><g
       id="g646"
       style="fill:#9955ff;fill-opacity:1"><path
         d="M395.471,175.771h-47.937c-2.207,0-3.994,1.787-3.994,3.995s1.787,3.995,3.994,3.995h47.937    c2.208,0,3.995-1.787,3.995-3.995S397.679,175.771,395.471,175.771z"
         id="path644"
         style="fill:#9955ff;fill-opacity:1" /></g></g><g
     id="g654"
     style="fill:#9955ff;fill-opacity:1"><g
       id="g652"
       style="fill:#9955ff;fill-opacity:1"><path
         d="M419.439,119.845H235.685c-2.208,0-3.995,1.787-3.995,3.995s1.787,3.995,3.995,3.995h183.754    c2.208,0,3.995-1.787,3.995-3.995S421.647,119.845,419.439,119.845z"
         id="path650"
         style="fill:#9955ff;fill-opacity:1" /></g></g><g
     id="g660"
     style="fill:#9955ff;fill-opacity:1"><g
       id="g658"
       style="fill:#9955ff;fill-opacity:1"><path
         d="M419.439,135.825H235.685c-2.208,0-3.995,1.787-3.995,3.995s1.787,3.994,3.995,3.994h183.754    c2.208,0,3.995-1.786,3.995-3.994C423.434,137.612,421.647,135.825,419.439,135.825z"
         id="path656"
         style="fill:#9955ff;fill-opacity:1" /></g></g><g
     id="g666"
     style="fill:#9955ff;fill-opacity:1"><g
       id="g664"
       style="fill:#9955ff;fill-opacity:1"><path
         d="M419.439,71.91H243.674c-2.208,0-3.995,1.787-3.995,3.995s1.787,3.995,3.995,3.995h175.765    c2.208,0,3.995-1.787,3.995-3.995S421.647,71.91,419.439,71.91z"
         id="path662"
         style="fill:#9955ff;fill-opacity:1" /></g></g><g
     id="g672"
     style="fill:#9955ff;fill-opacity:1"><g
       id="g670"
       style="fill:#9955ff;fill-opacity:1"><path
         d="M419.439,87.889H243.674c-2.208,0-3.995,1.786-3.995,3.994s1.787,3.995,3.995,3.995h175.765    c2.208,0,3.995-1.787,3.995-3.995S421.647,87.889,419.439,87.889z"
         id="path668"
         style="fill:#9955ff;fill-opacity:1" /></g></g><g
     id="g678"
     style="fill:#9955ff;fill-opacity:1"><g
       id="g676"
       style="fill:#9955ff;fill-opacity:1"><path
         d="M419.439,113.604c-2.208,0-3.994,1.787-3.994,3.995v22.221c0,2.208,1.786,3.994,3.994,3.994s3.995-1.786,3.995-3.994    v-22.221C423.434,115.391,421.647,113.604,419.439,113.604z"
         id="path674"
         style="fill:#9955ff;fill-opacity:1" /></g></g><g
     id="g684"
     style="fill:#9955ff;fill-opacity:1"><g
       id="g682"
       style="fill:#9955ff;fill-opacity:1"><path
         d="M227.695,111.857h-4.26c0.18-1.373,0.266-2.7,0.266-3.995c0-19.825-16.127-35.952-35.952-35.952    s-35.952,16.127-35.952,35.952s16.127,35.952,35.952,35.952h39.946c2.208,0,3.995-1.786,3.995-3.994v-23.968    C231.69,113.644,229.903,111.857,227.695,111.857z M223.701,135.824h-35.952c-15.417,0-27.963-12.545-27.963-27.962    S172.332,79.9,187.749,79.9s27.963,12.545,27.963,27.961c0,2.146-0.32,4.361-0.999,6.983c-0.312,1.193-0.055,2.465,0.702,3.448    c0.757,0.976,1.919,1.553,3.16,1.553h5.126V135.824z"
         id="path680"
         style="fill:#9955ff;fill-opacity:1" /></g></g><g
     id="g690"
     style="fill:#9955ff;fill-opacity:1"><g
       id="g688"
       style="fill:#9955ff;fill-opacity:1"><path
         d="M187.749,95.878c-6.608,0-11.984,5.375-11.984,11.984s5.376,11.984,11.984,11.984c6.608,0,11.984-5.375,11.984-11.984    S194.357,95.878,187.749,95.878z M187.749,111.857c-2.201,0-3.995-1.794-3.995-3.995s1.795-3.995,3.995-3.995    s3.995,1.794,3.995,3.995S189.95,111.857,187.749,111.857z"
         id="path686"
         style="fill:#9955ff;fill-opacity:1" /></g></g><g
     id="g696"
     style="fill:#9955ff;fill-opacity:1"><g
       id="g694"
       style="fill:#9955ff;fill-opacity:1"><path
         d="M243.674,71.91c-2.208,0-3.995,1.787-3.995,3.995v15.978c0,2.208,1.787,3.995,3.995,3.995    c2.208,0,3.995-1.787,3.995-3.994V75.905C247.669,73.697,245.882,71.91,243.674,71.91z"
         id="path692"
         style="fill:#9955ff;fill-opacity:1" /></g></g><g
     id="g702"
     style="fill:#9955ff;fill-opacity:1"><g
       id="g700"
       style="fill:#9955ff;fill-opacity:1"><path
         d="M419.439,71.91c-2.208,0-3.994,1.787-3.994,3.995v15.978c0,2.208,1.786,3.995,3.994,3.995s3.995-1.787,3.995-3.994V75.905    C423.434,73.697,421.647,71.91,419.439,71.91z"
         id="path698"
         style="fill:#9955ff;fill-opacity:1" /></g></g><g
     id="g704"
     style="fill:#9955ff;fill-opacity:1" /><g
     id="g706"
     style="fill:#9955ff;fill-opacity:1" /><g
     id="g708"
     style="fill:#9955ff;fill-opacity:1" /><g
     id="g710"
     style="fill:#9955ff;fill-opacity:1" /><g
     id="g712"
     style="fill:#9955ff;fill-opacity:1" /><g
     id="g714"
     style="fill:#9955ff;fill-opacity:1" /><g
     id="g716"
     style="fill:#9955ff;fill-opacity:1" /><g
     id="g718"
     style="fill:#9955ff;fill-opacity:1" /><g
     id="g720"
     style="fill:#9955ff;fill-opacity:1" /><g
     id="g722"
     style="fill:#9955ff;fill-opacity:1" /><g
     id="g724"
     style="fill:#9955ff;fill-opacity:1" /><g
     id="g726"
     style="fill:#9955ff;fill-opacity:1" /><g
     id="g728"
     style="fill:#9955ff;fill-opacity:1" /><g
     id="g730"
     style="fill:#9955ff;fill-opacity:1" /><g
     id="g732"
     style="fill:#9955ff;fill-opacity:1" /></svg>